<?xml version="1.0" encoding="UTF-8" standalone="no"?>
<svg
   width="276mm"
   height="183mm"
   viewBox="0 0 276 183"
   version="1.1"
   preserveAspectRatio="xMidYMid meet"
   id="svg15"
   sodipodi:docname="Boite corps de robot v3.svg"
   inkscape:version="1.2.2 (732a01da63, 2022-12-09)"
   xmlns:inkscape="http://www.inkscape.org/namespaces/inkscape"
   xmlns:sodipodi="http://sodipodi.sourceforge.net/DTD/sodipodi-0.dtd"
   xmlns="http://www.w3.org/2000/svg"
   xmlns:svg="http://www.w3.org/2000/svg">
  <defs
     id="defs19">
    <rect
       x="154.19595"
       y="378.80511"
       width="28.521795"
       height="24.956572"
       id="rect1330-5" />
  </defs>
  <sodipodi:namedview
     id="namedview17"
     pagecolor="#ffffff"
     bordercolor="#000000"
     borderopacity="0.25"
     inkscape:showpageshadow="2"
     inkscape:pageopacity="0.0"
     inkscape:pagecheckerboard="0"
     inkscape:deskcolor="#d1d1d1"
     inkscape:document-units="mm"
     showgrid="false"
     inkscape:zoom="1.1624317"
     inkscape:cx="681.33036"
     inkscape:cy="290.33964"
     inkscape:window-width="1920"
     inkscape:window-height="991"
     inkscape:window-x="-9"
     inkscape:window-y="-9"
     inkscape:window-maximized="1"
     inkscape:current-layer="svgGroup" />
  <g
     id="svgGroup"
     stroke-linecap="round"
     fill-rule="evenodd"
     font-size="9pt"
     stroke="#000"
     stroke-width="0.25mm"
     fill="none"
     style="stroke:#000;stroke-width:0.25mm;fill:none">
    <path
       d="M 0 93 L 0 100.5 L 3 100.5 L 3 106.625 L 5.75 106.625 L 5.75 105.375 L 8 105.375 L 8 106.625 L 10.25 106.625 L 10.25 109.375 L 8 109.375 L 8 110.625 L 5.75 110.625 L 5.75 109.375 L 3 109.375 L 3 115.5 L 0 115.5 L 0 130.5 L 3 130.5 L 3 136.625 L 5.75 136.625 L 5.75 135.375 L 8 135.375 L 8 136.625 L 10.25 136.625 L 10.25 139.375 L 8 139.375 L 8 140.625 L 5.75 140.625 L 5.75 139.375 L 3 139.375 L 3 145.5 L 0 145.5 L 0 160.5 L 3 160.5 L 3 166.625 L 5.75 166.625 L 5.75 165.375 L 8 165.375 L 8 166.625 L 10.25 166.625 L 10.25 169.375 L 8 169.375 L 8 170.625 L 5.75 170.625 L 5.75 169.375 L 3 169.375 L 3 175.5 L 0 175.5 L 0 183 L 7.5 183 L 7.5 180 L 13.625 180 L 13.625 177.25 L 12.375 177.25 L 12.375 175 L 13.625 175 L 13.625 172.75 L 16.375 172.75 L 16.375 175 L 17.625 175 L 17.625 177.25 L 16.375 177.25 L 16.375 180 L 22.5 180 L 22.5 183 L 37.5 183 L 37.5 180 L 43.625 180 L 43.625 177.25 L 42.375 177.25 L 42.375 175 L 43.625 175 L 43.625 172.75 L 46.375 172.75 L 46.375 175 L 47.625 175 L 47.625 177.25 L 46.375 177.25 L 46.375 180 L 52.5 180 L 52.5 183 L 67.5 183 L 67.5 180 L 73.625 180 L 73.625 177.25 L 72.375 177.25 L 72.375 175 L 73.625 175 L 73.625 172.75 L 76.375 172.75 L 76.375 175 L 77.625 175 L 77.625 177.25 L 76.375 177.25 L 76.375 180 L 82.5 180 L 82.5 183 L 90 183 L 90 175.5 L 87 175.5 L 87 169.375 L 84.25 169.375 L 84.25 170.625 L 82 170.625 L 82 169.375 L 79.75 169.375 L 79.75 166.625 L 82 166.625 L 82 165.375 L 84.25 165.375 L 84.25 166.625 L 87 166.625 L 87 160.5 L 90 160.5 L 90 145.5 L 87 145.5 L 87 139.375 L 84.25 139.375 L 84.25 140.625 L 82 140.625 L 82 139.375 L 79.75 139.375 L 79.75 136.625 L 82 136.625 L 82 135.375 L 84.25 135.375 L 84.25 136.625 L 87 136.625 L 87 130.5 L 90 130.5 L 90 115.5 L 87 115.5 L 87 109.375 L 84.25 109.375 L 84.25 110.625 L 82 110.625 L 82 109.375 L 79.75 109.375 L 79.75 106.625 L 82 106.625 L 82 105.375 L 84.25 105.375 L 84.25 106.625 L 87 106.625 L 87 100.5 L 90 100.5 L 90 93 L 82.5 93 L 82.5 96 L 76.375 96 L 76.375 98.75 L 77.625 98.75 L 77.625 101 L 76.375 101 L 76.375 103.25 L 73.625 103.25 L 73.625 101 L 72.375 101 L 72.375 98.75 L 73.625 98.75 L 73.625 96 L 67.5 96 L 67.5 93 L 52.5 93 L 52.5 96 L 46.375 96 L 46.375 98.75 L 47.625 98.75 L 47.625 101 L 46.375 101 L 46.375 103.25 L 43.625 103.25 L 43.625 101 L 42.375 101 L 42.375 98.75 L 43.625 98.75 L 43.625 96 L 37.5 96 L 37.5 93 L 22.5 93 L 22.5 96 L 16.375 96 L 16.375 98.75 L 17.625 98.75 L 17.625 101 L 16.375 101 L 16.375 103.25 L 13.625 103.25 L 13.625 101 L 12.375 101 L 12.375 98.75 L 13.625 98.75 L 13.625 96 L 7.5 96 L 7.5 93 L 0 93 Z"
       id="front_outsideCutPath"
       stroke="#FF0000"
       stroke-width="0.1"
       style="stroke:#FF0000;stroke-width:0.1"
       vector-effect="non-scaling-stroke" />
    <path
       d="M 189 96 L 189 100.5 L 186 100.5 L 186 106.625 L 188.75 106.625 L 188.75 108 L 188.75 109.375 L 186 109.375 L 186 115.5 L 189 115.5 L 189 130.5 L 186 130.5 L 186 136.625 L 188.75 136.625 L 188.75 138 L 188.75 139.375 L 186 139.375 L 186 145.5 L 189 145.5 L 189 160.5 L 186 160.5 L 186 166.625 L 188.75 166.625 L 188.75 168 L 188.75 169.375 L 186 169.375 L 186 175.5 L 189 175.5 L 189 180 L 193.5 180 L 193.5 183 L 199.625 183 L 199.625 180.25 L 201 180.25 L 202.375 180.25 L 202.375 183 L 208.5 183 L 208.5 180 L 223.5 180 L 223.5 183 L 229.625 183 L 229.625 180.25 L 231 180.25 L 232.375 180.25 L 232.375 183 L 238.5 183 L 238.5 180 L 253.5 180 L 253.5 183 L 259.625 183 L 259.625 180.25 L 261 180.25 L 262.375 180.25 L 262.375 183 L 268.5 183 L 268.5 180 L 273 180 L 273 175.5 L 276 175.5 L 276 169.375 L 273.25 169.375 L 273.25 168 L 273.25 166.625 L 276 166.625 L 276 160.5 L 273 160.5 L 273 145.5 L 276 145.5 L 276 139.375 L 273.25 139.375 L 273.25 138 L 273.25 136.625 L 276 136.625 L 276 130.5 L 273 130.5 L 273 115.5 L 276 115.5 L 276 109.375 L 273.25 109.375 L 273.25 108 L 273.25 106.625 L 276 106.625 L 276 100.5 L 273 100.5 L 273 96 L 268.5 96 L 268.5 93 L 262.375 93 L 262.375 95.75 L 261 95.75 L 259.625 95.75 L 259.625 93 L 253.5 93 L 253.5 96 L 238.5 96 L 238.5 93 L 232.375 93 L 232.375 95.75 L 231 95.75 L 229.625 95.75 L 229.625 93 L 223.5 93 L 223.5 96 L 208.5 96 L 208.5 93 L 202.375 93 L 202.375 95.75 L 201 95.75 L 199.625 95.75 L 199.625 93 L 193.5 93 L 193.5 96 L 189 96 Z"
       id="top_outsideCutPath"
       stroke="#FF0000"
       stroke-width="0.1"
       style="stroke:#FF0000;stroke-width:0.1"
       vector-effect="non-scaling-stroke" />
    <path
       d="M 0 0 L 0 7.5 L 3 7.5 L 3 13.625 L 5.75 13.625 L 5.75 12.375 L 8 12.375 L 8 13.625 L 10.25 13.625 L 10.25 16.375 L 8 16.375 L 8 17.625 L 5.75 17.625 L 5.75 16.375 L 3 16.375 L 3 22.5 L 0 22.5 L 0 37.5 L 3 37.5 L 3 43.625 L 5.75 43.625 L 5.75 42.375 L 8 42.375 L 8 43.625 L 10.25 43.625 L 10.25 46.375 L 8 46.375 L 8 47.625 L 5.75 47.625 L 5.75 46.375 L 3 46.375 L 3 52.5 L 0 52.5 L 0 67.5 L 3 67.5 L 3 73.625 L 5.75 73.625 L 5.75 72.375 L 8 72.375 L 8 73.625 L 10.25 73.625 L 10.25 76.375 L 8 76.375 L 8 77.625 L 5.75 77.625 L 5.75 76.375 L 3 76.375 L 3 82.5 L 0 82.5 L 0 90 L 7.5 90 L 7.5 87 L 13.625 87 L 13.625 84.25 L 12.375 84.25 L 12.375 82 L 13.625 82 L 13.625 79.75 L 16.375 79.75 L 16.375 82 L 17.625 82 L 17.625 84.25 L 16.375 84.25 L 16.375 87 L 22.5 87 L 22.5 90 L 37.5 90 L 37.5 87 L 43.625 87 L 43.625 84.25 L 42.375 84.25 L 42.375 82 L 43.625 82 L 43.625 79.75 L 46.375 79.75 L 46.375 82 L 47.625 82 L 47.625 84.25 L 46.375 84.25 L 46.375 87 L 52.5 87 L 52.5 90 L 67.5 90 L 67.5 87 L 73.625 87 L 73.625 84.25 L 72.375 84.25 L 72.375 82 L 73.625 82 L 73.625 79.75 L 76.375 79.75 L 76.375 82 L 77.625 82 L 77.625 84.25 L 76.375 84.25 L 76.375 87 L 82.5 87 L 82.5 90 L 90 90 L 90 82.5 L 87 82.5 L 87 76.375 L 84.25 76.375 L 84.25 77.625 L 82 77.625 L 82 76.375 L 79.75 76.375 L 79.75 73.625 L 82 73.625 L 82 72.375 L 84.25 72.375 L 84.25 73.625 L 87 73.625 L 87 67.5 L 90 67.5 L 90 52.5 L 87 52.5 L 87 46.375 L 84.25 46.375 L 84.25 47.625 L 82 47.625 L 82 46.375 L 79.75 46.375 L 79.75 43.625 L 82 43.625 L 82 42.375 L 84.25 42.375 L 84.25 43.625 L 87 43.625 L 87 37.5 L 90 37.5 L 90 22.5 L 87 22.5 L 87 16.375 L 84.25 16.375 L 84.25 17.625 L 82 17.625 L 82 16.375 L 79.75 16.375 L 79.75 13.625 L 82 13.625 L 82 12.375 L 84.25 12.375 L 84.25 13.625 L 87 13.625 L 87 7.5 L 90 7.5 L 90 0 L 82.5 0 L 82.5 3 L 76.375 3 L 76.375 5.75 L 77.625 5.75 L 77.625 8 L 76.375 8 L 76.375 10.25 L 73.625 10.25 L 73.625 8 L 72.375 8 L 72.375 5.75 L 73.625 5.75 L 73.625 3 L 67.5 3 L 67.5 0 L 52.5 0 L 52.5 3 L 46.375 3 L 46.375 5.75 L 47.625 5.75 L 47.625 8 L 46.375 8 L 46.375 10.25 L 43.625 10.25 L 43.625 8 L 42.375 8 L 42.375 5.75 L 43.625 5.75 L 43.625 3 L 37.5 3 L 37.5 0 L 22.5 0 L 22.5 3 L 16.375 3 L 16.375 5.75 L 17.625 5.75 L 17.625 8 L 16.375 8 L 16.375 10.25 L 13.625 10.25 L 13.625 8 L 12.375 8 L 12.375 5.75 L 13.625 5.75 L 13.625 3 L 7.5 3 L 7.5 0 L 0 0 Z"
       id="back_outsideCutPath"
       stroke="#FF0000"
       stroke-width="0.1"
       style="stroke:#FF0000;stroke-width:0.1"
       vector-effect="non-scaling-stroke" />
    <path
       d="M 96 0 L 96 7.5 L 93 7.5 L 93 13.625 L 95.75 13.625 L 95.75 15 L 95.75 16.375 L 93 16.375 L 93 22.5 L 96 22.5 L 96 37.5 L 93 37.5 L 93 43.625 L 95.75 43.625 L 95.75 45 L 95.75 46.375 L 93 46.375 L 93 52.5 L 96 52.5 L 96 67.5 L 93 67.5 L 93 73.625 L 95.75 73.625 L 95.75 75 L 95.75 76.375 L 93 76.375 L 93 82.5 L 96 82.5 L 96 90 L 100.5 90 L 100.5 87 L 106.625 87 L 106.625 84.25 L 105.375 84.25 L 105.375 82 L 106.625 82 L 106.625 79.75 L 109.375 79.75 L 109.375 82 L 110.625 82 L 110.625 84.25 L 109.375 84.25 L 109.375 87 L 115.5 87 L 115.5 90 L 130.5 90 L 130.5 87 L 136.625 87 L 136.625 84.25 L 135.375 84.25 L 135.375 82 L 136.625 82 L 136.625 79.75 L 139.375 79.75 L 139.375 82 L 140.625 82 L 140.625 84.25 L 139.375 84.25 L 139.375 87 L 145.5 87 L 145.5 90 L 160.5 90 L 160.5 87 L 166.625 87 L 166.625 84.25 L 165.375 84.25 L 165.375 82 L 166.625 82 L 166.625 79.75 L 169.375 79.75 L 169.375 82 L 170.625 82 L 170.625 84.25 L 169.375 84.25 L 169.375 87 L 175.5 87 L 175.5 90 L 180 90 L 180 82.5 L 183 82.5 L 183 76.375 L 180.25 76.375 L 180.25 75 L 180.25 73.625 L 183 73.625 L 183 67.5 L 180 67.5 L 180 52.5 L 183 52.5 L 183 46.375 L 180.25 46.375 L 180.25 45 L 180.25 43.625 L 183 43.625 L 183 37.5 L 180 37.5 L 180 22.5 L 183 22.5 L 183 16.375 L 180.25 16.375 L 180.25 15 L 180.25 13.625 L 183 13.625 L 183 7.5 L 180 7.5 L 180 0 L 175.5 0 L 175.5 3 L 169.375 3 L 169.375 5.75 L 170.625 5.75 L 170.625 8 L 169.375 8 L 169.375 10.25 L 166.625 10.25 L 166.625 8 L 165.375 8 L 165.375 5.75 L 166.625 5.75 L 166.625 3 L 160.5 3 L 160.5 0 L 145.5 0 L 145.5 3 L 139.375 3 L 139.375 5.75 L 140.625 5.75 L 140.625 8 L 139.375 8 L 139.375 10.25 L 136.625 10.25 L 136.625 8 L 135.375 8 L 135.375 5.75 L 136.625 5.75 L 136.625 3 L 130.5 3 L 130.5 0 L 115.5 0 L 115.5 3 L 109.375 3 L 109.375 5.75 L 110.625 5.75 L 110.625 8 L 109.375 8 L 109.375 10.25 L 106.625 10.25 L 106.625 8 L 105.375 8 L 105.375 5.75 L 106.625 5.75 L 106.625 3 L 100.5 3 L 100.5 0 L 96 0 Z"
       id="right_outsideCutPath"
       stroke="#FF0000"
       stroke-width="0.1"
       style="stroke:#FF0000;stroke-width:0.1"
       vector-effect="non-scaling-stroke" />
    <path
       d="M 189 3 L 189 7.5 L 186 7.5 L 186 13.625 L 188.75 13.625 L 188.75 15 L 188.75 16.375 L 186 16.375 L 186 22.5 L 189 22.5 L 189 37.5 L 186 37.5 L 186 43.625 L 188.75 43.625 L 188.75 45 L 188.75 46.375 L 186 46.375 L 186 52.5 L 189 52.5 L 189 67.5 L 186 67.5 L 186 73.625 L 188.75 73.625 L 188.75 75 L 188.75 76.375 L 186 76.375 L 186 82.5 L 189 82.5 L 189 87 L 193.5 87 L 193.5 90 L 199.625 90 L 199.625 87.25 L 201 87.25 L 202.375 87.25 L 202.375 90 L 208.5 90 L 208.5 87 L 223.5 87 L 223.5 90 L 229.625 90 L 229.625 87.25 L 231 87.25 L 232.375 87.25 L 232.375 90 L 238.5 90 L 238.5 87 L 253.5 87 L 253.5 90 L 259.625 90 L 259.625 87.25 L 261 87.25 L 262.375 87.25 L 262.375 90 L 268.5 90 L 268.5 87 L 273 87 L 273 82.5 L 276 82.5 L 276 76.375 L 273.25 76.375 L 273.25 75 L 273.25 73.625 L 276 73.625 L 276 67.5 L 273 67.5 L 273 52.5 L 276 52.5 L 276 46.375 L 273.25 46.375 L 273.25 45 L 273.25 43.625 L 276 43.625 L 276 37.5 L 273 37.5 L 273 22.5 L 276 22.5 L 276 16.375 L 273.25 16.375 L 273.25 15 L 273.25 13.625 L 276 13.625 L 276 7.5 L 273 7.5 L 273 3 L 268.5 3 L 268.5 0 L 262.375 0 L 262.375 2.75 L 261 2.75 L 259.625 2.75 L 259.625 0 L 253.5 0 L 253.5 3 L 238.5 3 L 238.5 0 L 232.375 0 L 232.375 2.75 L 231 2.75 L 229.625 2.75 L 229.625 0 L 223.5 0 L 223.5 3 L 208.5 3 L 208.5 0 L 202.375 0 L 202.375 2.75 L 201 2.75 L 199.625 2.75 L 199.625 0 L 193.5 0 L 193.5 3 L 189 3 Z"
       id="bottom_outsideCutPath"
       stroke="#FF0000"
       stroke-width="0.1"
       style="stroke:#FF0000;stroke-width:0.1"
       vector-effect="non-scaling-stroke" />
    <rect
       style="fill:#ffffff;stroke:#ff0000;stroke-width:0.1;stroke-dasharray:none"
       id="rect373-6-5-8-3"
       width="19.914139"
       height="40.914139"
       x="98.296997"
       y="37.060417" />
    <circle
       style="fill:#ffffff;stroke:#ff0000;stroke-width:0.1;stroke-dasharray:none"
       id="path629-4-1-2-7"
       cx="103.15143"
       cy="33.017735"
       r="1.9677356" />
    <circle
       style="fill:#ffffff;stroke:#ff0000;stroke-width:0.1;stroke-dasharray:none"
       id="path629-4-5-9-2-3"
       cx="103.15143"
       cy="81.746735"
       r="1.9677356" />
    <circle
       style="fill:#ffffff;stroke:#ff0000;stroke-width:0.1;stroke-dasharray:none"
       id="path629-4-6-4-4-9"
       cx="113.15143"
       cy="81.746735"
       r="1.9677356" />
    <circle
       style="fill:#ffffff;stroke:#ff0000;stroke-width:0.1;stroke-dasharray:none"
       id="path629-8-3-6-3-2"
       cx="113.15143"
       cy="33.017735"
       r="1.9677356" />
    <path
       d="m 95.477609,92.477611 v 7.5 h -3 v 6.124999 h 2.75 v 1.375 1.375 h -2.75 v 6.125 h 3 v 15 h -3 v 6.125 h 2.75 v 1.375 1.375 h -2.75 v 6.125 h 3 v 15 h -3 v 6.125 h 2.75 v 1.375 1.375 h -2.75 v 6.125 h 3 v 7.5 h 4.5 v -3 h 6.125001 v -2.75 h -1.25 v -2.25 h 1.25 v -2.25 h 2.75 v 2.25 h 1.25 v 2.25 h -1.25 v 2.75 h 6.125 v 3 h 15 v -3 h 6.125 v -2.75 h -1.25 v -2.25 h 1.25 v -2.25 h 2.75 v 2.25 h 1.25 v 2.25 h -1.25 v 2.75 h 6.125 v 3 h 15 v -3 h 6.125 v -2.75 h -1.25 v -2.25 h 1.25 v -2.25 h 2.75 v 2.25 h 1.25 v 2.25 h -1.25 v 2.75 h 6.125 v 3 h 4.5 v -7.5 h 3 v -6.125 h -2.75 v -1.375 -1.375 h 2.75 v -6.125 h -3 v -15 h 3 v -6.125 h -2.75 v -1.375 -1.375 h 2.75 v -6.125 h -3 v -15 h 3 v -6.125 h -2.75 v -1.375 -1.375 h 2.75 v -6.124999 h -3 v -7.5 h -4.5 v 3 h -6.125 v 2.75 h 1.25 v 2.249999 h -1.25 v 2.25 h -2.75 v -2.25 h -1.25 v -2.249999 h 1.25 v -2.75 h -6.125 v -3 h -15 v 3 h -6.125 v 2.75 h 1.25 v 2.249999 h -1.25 v 2.25 h -2.75 v -2.25 h -1.25 v -2.249999 h 1.25 v -2.75 h -6.125 v -3 h -15 v 3 h -6.125 v 2.75 h 1.25 v 2.249999 h -1.25 v 2.25 h -2.75 v -2.25 h -1.25 v -2.249999 h 1.25 v -2.75 h -6.125001 v -3 z"
       id="right_outsideCutPath-5"
       stroke="#FF0000"
       stroke-width="0.1"
       style="fill:none;stroke:#ff0000;stroke-width:0.1"
       vector-effect="non-scaling-stroke" />
    <rect
       style="fill:#ffffff;stroke:#ff0000;stroke-width:0.1;stroke-dasharray:none"
       id="rect373-6-5-8-3-3"
       width="19.914139"
       height="40.914139"
       x="97.774612"
       y="129.53841" />
    <circle
       style="fill:#ffffff;stroke:#ff0000;stroke-width:0.1;stroke-dasharray:none"
       id="path629-4-1-2-7-4"
       cx="102.62904"
       cy="125.49574"
       r="1.9677356" />
    <circle
       style="fill:#ffffff;stroke:#ff0000;stroke-width:0.1;stroke-dasharray:none"
       id="path629-4-5-9-2-3-7"
       cx="102.62904"
       cy="174.22473"
       r="1.9677356" />
    <circle
       style="fill:#ffffff;stroke:#ff0000;stroke-width:0.1;stroke-dasharray:none"
       id="path629-4-6-4-4-9-5"
       cx="112.62904"
       cy="174.22473"
       r="1.9677356" />
    <circle
       style="fill:#ffffff;stroke:#ff0000;stroke-width:0.1;stroke-dasharray:none"
       id="path629-8-3-6-3-2-3"
       cx="112.62904"
       cy="125.49574"
       r="1.9677356" />
    <ellipse
       style="fill:#ffffff;stroke:#ff0000;stroke-width:0.081981"
       id="path342"
       cx="231.48135"
       cy="73.58078"
       rx="10.45901"
       ry="10.459009" />
    <circle
       style="fill:#ffffff;stroke:#ff0000;stroke-width:0.07789"
       id="path715"
       cx="231.48135"
       cy="59.949074"
       r="1.961055" />
  </g>
  <rect
     style="fill:none;stroke:#ff0000;stroke-width:0.0858237;stroke-dasharray:none;stroke-opacity:1"
     id="rect1249"
     width="22.914177"
     height="12.914176"
     x="33.531715"
     y="158.13731" />
  <rect
     style="fill:none;stroke:#ff0000;stroke-width:0.138173;stroke-dasharray:none;stroke-opacity:1"
     id="rect1251"
     width="7.8618269"
     height="4.8618269"
     x="20.057892"
     y="161.66348" />
  <text
     xml:space="preserve"
     transform="matrix(0.26458333,0,0,0.26458333,2.9235073,3.5187311)"
     id="text1328"
     style="white-space:pre;shape-inside:url(#rect1330-5);display:inline;fill:none;stroke:#ff0000;stroke-width:0.377953;stroke-dasharray:none;stroke-opacity:1"><tspan
       x="154.19531"
       y="389.72319"
       id="tspan19257"><tspan
         style="stroke:#000000"
         id="tspan19255">K</tspan></tspan></text>
  <circle
     style="fill:#ffffff;stroke:#ff0000;stroke-width:0.07789"
     id="path715-2"
     cx="42.135796"
     cy="147.59438"
     r="1.961055" />
  <circle
     style="fill:#ffffff;stroke:#ff0000;stroke-width:0.07789"
     id="path715-6"
     cx="47.988808"
     cy="147.59438"
     r="1.961055" />
  <rect
     style="fill:none;stroke:#ff0000;stroke-width:0.0740581;stroke-dasharray:none;stroke-opacity:1"
     id="rect518-9"
     width="13.625942"
     height="17.925941"
     x="38.05183"
     y="108.83245" />
</svg>
