<?xml version='1.0' encoding='us-ascii'?>
<svg width="302.20mm" height="455.30mm" viewBox="0.0 0.0 302.20 455.30" xmlns="http://www.w3.org/2000/svg" xmlns:dc="http://purl.org/dc/elements/1.1/" xmlns:cc="http://creativecommons.org/ns#" xmlns:rdf="http://www.w3.org/1999/02/22-rdf-syntax-ns#" xmlns:svg="http://www.w3.org/2000/svg" xmlns:xlink="http://www.w3.org/1999/xlink" xmlns:inkscape="http://www.inkscape.org/namespaces/inkscape">
<!--
ClosedBox - Fully closed box


This box is more of a building block than a finished item.
Use a vector graphics program (like Inkscape) to add holes or adjust the base
plate.

See BasedBox for variant with a base.


Created with Boxes.py (https://festi.info/boxes.py)
Creation date: 2022-11-15 22:04:05
Command line (remove spaces between dashes): boxes ClosedBox - -FingerJoint_angle=90.0 - -FingerJoint_style=rectangular - -FingerJoint_surroundingspaces=2.0 - -FingerJoint_edge_width=1.0 - -FingerJoint_extra_length=0.0 - -FingerJoint_finger=2.0 - -FingerJoint_play=0.0 - -FingerJoint_space=2.0 - -FingerJoint_width=1.0 - -x=140.0 - -y=140.0 - -h=140.0 - -outside=0 - -outside=1 - -thickness=3.0 - -format=svg - -tabs=0.0 - -debug=0 - -labels=0 - -labels=1 - -reference=100 - -inner_corners=loop - -burn=0.1
Url: http://www.festi.info/ClosedBox?FingerJoint_angle=90.0&FingerJoint_style=rectangular&FingerJoint_surroundingspaces=2.0&FingerJoint_edge_width=1.0&FingerJoint_extra_length=0.0&FingerJoint_finger=2.0&FingerJoint_play=0.0&FingerJoint_space=2.0&FingerJoint_width=1.0&x=140.0&y=140.0&h=140.0&outside=0&outside=1&thickness=3.0&format=svg&tabs=0.0&debug=0&labels=0&labels=1&reference=100&inner_corners=loop&burn=0.1&render=1
SettingsUrl: http://www.festi.info/ClosedBox?FingerJoint_angle=90.0&FingerJoint_style=rectangular&FingerJoint_surroundingspaces=2.0&FingerJoint_edge_width=1.0&FingerJoint_extra_length=0.0&FingerJoint_finger=2.0&FingerJoint_play=0.0&FingerJoint_space=2.0&FingerJoint_width=1.0&x=140.0&y=140.0&h=140.0&outside=0&outside=1&thickness=3.0&format=svg&tabs=0.0&debug=0&labels=0&labels=1&reference=100&inner_corners=loop&burn=0.1
-->
<title>ClosedBox</title>
<metadata>
<rdf:RDF><cc:Work>
<dc:title>Box - ClosedBox</dc:title>
<dc:date>2022-11-15 22:04:05</dc:date>
<dc:source>http://www.festi.info/ClosedBox?FingerJoint_angle=90.0&amp;FingerJoint_style=rectangular&amp;FingerJoint_surroundingspaces=2.0&amp;FingerJoint_edge_width=1.0&amp;FingerJoint_extra_length=0.0&amp;FingerJoint_finger=2.0&amp;FingerJoint_play=0.0&amp;FingerJoint_space=2.0&amp;FingerJoint_width=1.0&amp;x=140.0&amp;y=140.0&amp;h=140.0&amp;outside=0&amp;outside=1&amp;thickness=3.0&amp;format=svg&amp;tabs=0.0&amp;debug=0&amp;labels=0&amp;labels=1&amp;reference=100&amp;inner_corners=loop&amp;burn=0.1&amp;render=1</dc:source>
<dc:description>Fully closed box

This box is more of a building block than a finished item.
Use a vector graphics program (like Inkscape) to add holes or adjust the base
plate.

See BasedBox for variant with a base.

Created with Boxes.py (https://festi.info/boxes.py)
Command line: boxes ClosedBox --FingerJoint_angle=90.0 --FingerJoint_style=rectangular --FingerJoint_surroundingspaces=2.0 --FingerJoint_edge_width=1.0 --FingerJoint_extra_length=0.0 --FingerJoint_finger=2.0 --FingerJoint_play=0.0 --FingerJoint_space=2.0 --FingerJoint_width=1.0 --x=140.0 --y=140.0 --h=140.0 --outside=0 --outside=1 --thickness=3.0 --format=svg --tabs=0.0 --debug=0 --labels=0 --labels=1 --reference=100 --inner_corners=loop --burn=0.1
Url: http://www.festi.info/ClosedBox?FingerJoint_angle=90.0&amp;FingerJoint_style=rectangular&amp;FingerJoint_surroundingspaces=2.0&amp;FingerJoint_edge_width=1.0&amp;FingerJoint_extra_length=0.0&amp;FingerJoint_finger=2.0&amp;FingerJoint_play=0.0&amp;FingerJoint_space=2.0&amp;FingerJoint_width=1.0&amp;x=140.0&amp;y=140.0&amp;h=140.0&amp;outside=0&amp;outside=1&amp;thickness=3.0&amp;format=svg&amp;tabs=0.0&amp;debug=0&amp;labels=0&amp;labels=1&amp;reference=100&amp;inner_corners=loop&amp;burn=0.1&amp;render=1
SettingsUrl: http://www.festi.info/ClosedBox?FingerJoint_angle=90.0&amp;FingerJoint_style=rectangular&amp;FingerJoint_surroundingspaces=2.0&amp;FingerJoint_edge_width=1.0&amp;FingerJoint_extra_length=0.0&amp;FingerJoint_finger=2.0&amp;FingerJoint_play=0.0&amp;FingerJoint_space=2.0&amp;FingerJoint_width=1.0&amp;x=140.0&amp;y=140.0&amp;h=140.0&amp;outside=0&amp;outside=1&amp;thickness=3.0&amp;format=svg&amp;tabs=0.0&amp;debug=0&amp;labels=0&amp;labels=1&amp;reference=100&amp;inner_corners=loop&amp;burn=0.1
</dc:description>
</cc:Work></rdf:RDF></metadata>
<g id="p-0" style="fill:none;stroke-linecap:round;stroke-linejoin:round;">
  <path d="M 10.400 445.300 H 110.400 V 435.300 H 10.400 V 445.300 Z" stroke="rgb(0,0,0)" stroke-width="0.20" />
  <text transform="matrix( 1.000 0.000 0.000 1.000 60.400 436.300 )" style="font-family: sans-serif ; font-weight: normal; font-style: normal; fill: rgb(255,0,0)" font-size="8px" text-anchor="middle" dominant-baseline="hanging">100mm, burn:0.10mm</text>
</g>
<g id="p-1" style="fill:none;stroke-linecap:round;stroke-linejoin:round;">
  <text transform="matrix( 1.000 0.000 0.000 1.000 80.400 361.600 )" style="font-family: sans-serif ; font-weight: normal; font-style: normal; fill: rgb(255,0,0)" font-size="4px" text-anchor="middle" dominant-baseline="hanging">Wall 1</text><path d="M 13.400 433.600 H 23.400 C 23.455 433.600 23.500 433.555 23.500 433.500 V 430.600 C 23.500 430.500 23.400 430.600 23.500 430.600 H 29.300 C 29.400 430.600 29.300 430.500 29.300 430.600 V 433.500 C 29.300 433.555 29.345 433.600 29.400 433.600 H 35.400 C 35.455 433.600 35.500 433.555 35.500 433.500 V 430.600 C 35.500 430.500 35.400 430.600 35.500 430.600 H 41.300 C 41.400 430.600 41.300 430.500 41.300 430.600 V 433.500 C 41.300 433.555 41.345 433.600 41.400 433.600 H 47.400 C 47.455 433.600 47.500 433.555 47.500 433.500 V 430.600 C 47.500 430.500 47.400 430.600 47.500 430.600 H 53.300 C 53.400 430.600 53.300 430.500 53.300 430.600 V 433.500 C 53.300 433.555 53.345 433.600 53.400 433.600 H 59.400 C 59.455 433.600 59.500 433.555 59.500 433.500 V 430.600 C 59.500 430.500 59.400 430.600 59.500 430.600 H 65.300 C 65.400 430.600 65.300 430.500 65.300 430.600 V 433.500 C 65.300 433.555 65.345 433.600 65.400 433.600 H 71.400 C 71.455 433.600 71.500 433.555 71.500 433.500 V 430.600 C 71.500 430.500 71.400 430.600 71.500 430.600 H 77.300 C 77.400 430.600 77.300 430.500 77.300 430.600 V 433.500 C 77.300 433.555 77.345 433.600 77.400 433.600 H 83.400 C 83.455 433.600 83.500 433.555 83.500 433.500 V 430.600 C 83.500 430.500 83.400 430.600 83.500 430.600 H 89.300 C 89.400 430.600 89.300 430.500 89.300 430.600 V 433.500 C 89.300 433.555 89.345 433.600 89.400 433.600 H 95.400 C 95.455 433.600 95.500 433.555 95.500 433.500 V 430.600 C 95.500 430.500 95.400 430.600 95.500 430.600 H 101.300 C 101.400 430.600 101.300 430.500 101.300 430.600 V 433.500 C 101.300 433.555 101.345 433.600 101.400 433.600 H 107.400 C 107.455 433.600 107.500 433.555 107.500 433.500 V 430.600 C 107.500 430.500 107.400 430.600 107.500 430.600 H 113.300 C 113.400 430.600 113.300 430.500 113.300 430.600 V 433.500 C 113.300 433.555 113.345 433.600 113.400 433.600 H 119.400 C 119.455 433.600 119.500 433.555 119.500 433.500 V 430.600 C 119.500 430.500 119.400 430.600 119.500 430.600 H 125.300 C 125.400 430.600 125.300 430.500 125.300 430.600 V 433.500 C 125.300 433.555 125.345 433.600 125.400 433.600 H 131.400 C 131.455 433.600 131.500 433.555 131.500 433.500 V 430.600 C 131.500 430.500 131.400 430.600 131.500 430.600 H 137.300 C 137.400 430.600 137.300 430.500 137.300 430.600 V 433.500 C 137.300 433.555 137.345 433.600 137.400 433.600 H 147.400 H 150.400 C 150.455 433.600 150.500 433.555 150.500 433.500 V 430.500 V 420.500 C 150.500 420.445 150.455 420.400 150.400 420.400 H 147.500 C 147.400 420.400 147.500 420.500 147.500 420.400 V 414.600 C 147.500 414.500 147.400 414.600 147.500 414.600 H 150.400 C 150.455 414.600 150.500 414.555 150.500 414.500 V 408.500 C 150.500 408.445 150.455 408.400 150.400 408.400 H 147.500 C 147.400 408.400 147.500 408.500 147.500 408.400 V 402.600 C 147.500 402.500 147.400 402.600 147.500 402.600 H 150.400 C 150.455 402.600 150.500 402.555 150.500 402.500 V 396.500 C 150.500 396.445 150.455 396.400 150.400 396.400 H 147.500 C 147.400 396.400 147.500 396.500 147.500 396.400 V 390.600 C 147.500 390.500 147.400 390.600 147.500 390.600 H 150.400 C 150.455 390.600 150.500 390.555 150.500 390.500 V 384.500 C 150.500 384.445 150.455 384.400 150.400 384.400 H 147.500 C 147.400 384.400 147.500 384.500 147.500 384.400 V 378.600 C 147.500 378.500 147.400 378.600 147.500 378.600 H 150.400 C 150.455 378.600 150.500 378.555 150.500 378.500 V 372.500 C 150.500 372.445 150.455 372.400 150.400 372.400 H 147.500 C 147.400 372.400 147.500 372.500 147.500 372.400 V 366.600 C 147.500 366.500 147.400 366.600 147.500 366.600 H 150.400 C 150.455 366.600 150.500 366.555 150.500 366.500 V 360.500 C 150.500 360.445 150.455 360.400 150.400 360.400 H 147.500 C 147.400 360.400 147.500 360.500 147.500 360.400 V 354.600 C 147.500 354.500 147.400 354.600 147.500 354.600 H 150.400 C 150.455 354.600 150.500 354.555 150.500 354.500 V 348.500 C 150.500 348.445 150.455 348.400 150.400 348.400 H 147.500 C 147.400 348.400 147.500 348.500 147.500 348.400 V 342.600 C 147.500 342.500 147.400 342.600 147.500 342.600 H 150.400 C 150.455 342.600 150.500 342.555 150.500 342.500 V 336.500 C 150.500 336.445 150.455 336.400 150.400 336.400 H 147.500 C 147.400 336.400 147.500 336.500 147.500 336.400 V 330.600 C 147.500 330.500 147.400 330.600 147.500 330.600 H 150.400 C 150.455 330.600 150.500 330.555 150.500 330.500 V 324.500 C 150.500 324.445 150.455 324.400 150.400 324.400 H 147.500 C 147.400 324.400 147.500 324.500 147.500 324.400 V 318.600 C 147.500 318.500 147.400 318.600 147.500 318.600 H 150.400 C 150.455 318.600 150.500 318.555 150.500 318.500 V 312.500 C 150.500 312.445 150.455 312.400 150.400 312.400 H 147.500 C 147.400 312.400 147.500 312.500 147.500 312.400 V 306.600 C 147.500 306.500 147.400 306.600 147.500 306.600 H 150.400 C 150.455 306.600 150.500 306.555 150.500 306.500 V 296.500 V 293.500 C 150.500 293.445 150.455 293.400 150.400 293.400 H 147.400 H 137.400 C 137.345 293.400 137.300 293.445 137.300 293.500 V 296.400 C 137.300 296.500 137.400 296.400 137.300 296.400 H 131.500 C 131.400 296.400 131.500 296.500 131.500 296.400 V 293.500 C 131.500 293.445 131.455 293.400 131.400 293.400 H 125.400 C 125.345 293.400 125.300 293.445 125.300 293.500 V 296.400 C 125.300 296.500 125.400 296.400 125.300 296.400 H 119.500 C 119.400 296.400 119.500 296.500 119.500 296.400 V 293.500 C 119.500 293.445 119.455 293.400 119.400 293.400 H 113.400 C 113.345 293.400 113.300 293.445 113.300 293.500 V 296.400 C 113.300 296.500 113.400 296.400 113.300 296.400 H 107.500 C 107.400 296.400 107.500 296.500 107.500 296.400 V 293.500 C 107.500 293.445 107.455 293.400 107.400 293.400 H 101.400 C 101.345 293.400 101.300 293.445 101.300 293.500 V 296.400 C 101.300 296.500 101.400 296.400 101.300 296.400 H 95.500 C 95.400 296.400 95.500 296.500 95.500 296.400 V 293.500 C 95.500 293.445 95.455 293.400 95.400 293.400 H 89.400 C 89.345 293.400 89.300 293.445 89.300 293.500 V 296.400 C 89.300 296.500 89.400 296.400 89.300 296.400 H 83.500 C 83.400 296.400 83.500 296.500 83.500 296.400 V 293.500 C 83.500 293.445 83.455 293.400 83.400 293.400 H 77.400 C 77.345 293.400 77.300 293.445 77.300 293.500 V 296.400 C 77.300 296.500 77.400 296.400 77.300 296.400 H 71.500 C 71.400 296.400 71.500 296.500 71.500 296.400 V 293.500 C 71.500 293.445 71.455 293.400 71.400 293.400 H 65.400 C 65.345 293.400 65.300 293.445 65.300 293.500 V 296.400 C 65.300 296.500 65.400 296.400 65.300 296.400 H 59.500 C 59.400 296.400 59.500 296.500 59.500 296.400 V 293.500 C 59.500 293.445 59.455 293.400 59.400 293.400 H 53.400 C 53.345 293.400 53.300 293.445 53.300 293.500 V 296.400 C 53.300 296.500 53.400 296.400 53.300 296.400 H 47.500 C 47.400 296.400 47.500 296.500 47.500 296.400 V 293.500 C 47.500 293.445 47.455 293.400 47.400 293.400 H 41.400 C 41.345 293.400 41.300 293.445 41.300 293.500 V 296.400 C 41.300 296.500 41.400 296.400 41.300 296.400 H 35.500 C 35.400 296.400 35.500 296.500 35.500 296.400 V 293.500 C 35.500 293.445 35.455 293.400 35.400 293.400 H 29.400 C 29.345 293.400 29.300 293.445 29.300 293.500 V 296.400 C 29.300 296.500 29.400 296.400 29.300 296.400 H 23.500 C 23.400 296.400 23.500 296.500 23.500 296.400 V 293.500 C 23.500 293.445 23.455 293.400 23.400 293.400 H 13.400 H 10.400 C 10.345 293.400 10.300 293.445 10.300 293.500 V 296.500 V 306.500 C 10.300 306.555 10.345 306.600 10.400 306.600 H 13.300 C 13.400 306.600 13.300 306.500 13.300 306.600 V 312.400 C 13.300 312.500 13.400 312.400 13.300 312.400 H 10.400 C 10.345 312.400 10.300 312.445 10.300 312.500 V 318.500 C 10.300 318.555 10.345 318.600 10.400 318.600 H 13.300 C 13.400 318.600 13.300 318.500 13.300 318.600 V 324.400 C 13.300 324.500 13.400 324.400 13.300 324.400 H 10.400 C 10.345 324.400 10.300 324.445 10.300 324.500 V 330.500 C 10.300 330.555 10.345 330.600 10.400 330.600 H 13.300 C 13.400 330.600 13.300 330.500 13.300 330.600 V 336.400 C 13.300 336.500 13.400 336.400 13.300 336.400 H 10.400 C 10.345 336.400 10.300 336.445 10.300 336.500 V 342.500 C 10.300 342.555 10.345 342.600 10.400 342.600 H 13.300 C 13.400 342.600 13.300 342.500 13.300 342.600 V 348.400 C 13.300 348.500 13.400 348.400 13.300 348.400 H 10.400 C 10.345 348.400 10.300 348.445 10.300 348.500 V 354.500 C 10.300 354.555 10.345 354.600 10.400 354.600 H 13.300 C 13.400 354.600 13.300 354.500 13.300 354.600 V 360.400 C 13.300 360.500 13.400 360.400 13.300 360.400 H 10.400 C 10.345 360.400 10.300 360.445 10.300 360.500 V 366.500 C 10.300 366.555 10.345 366.600 10.400 366.600 H 13.300 C 13.400 366.600 13.300 366.500 13.300 366.600 V 372.400 C 13.300 372.500 13.400 372.400 13.300 372.400 H 10.400 C 10.345 372.400 10.300 372.445 10.300 372.500 V 378.500 C 10.300 378.555 10.345 378.600 10.400 378.600 H 13.300 C 13.400 378.600 13.300 378.500 13.300 378.600 V 384.400 C 13.300 384.500 13.400 384.400 13.300 384.400 H 10.400 C 10.345 384.400 10.300 384.445 10.300 384.500 V 390.500 C 10.300 390.555 10.345 390.600 10.400 390.600 H 13.300 C 13.400 390.600 13.300 390.500 13.300 390.600 V 396.400 C 13.300 396.500 13.400 396.400 13.300 396.400 H 10.400 C 10.345 396.400 10.300 396.445 10.300 396.500 V 402.500 C 10.300 402.555 10.345 402.600 10.400 402.600 H 13.300 C 13.400 402.600 13.300 402.500 13.300 402.600 V 408.400 C 13.300 408.500 13.400 408.400 13.300 408.400 H 10.400 C 10.345 408.400 10.300 408.445 10.300 408.500 V 414.500 C 10.300 414.555 10.345 414.600 10.400 414.600 H 13.300 C 13.400 414.600 13.300 414.500 13.300 414.600 V 420.400 C 13.300 420.500 13.400 420.400 13.300 420.400 H 10.400 C 10.345 420.400 10.300 420.445 10.300 420.500 V 430.500 V 433.500 C 10.300 433.555 10.345 433.600 10.400 433.600 H 13.400" stroke="rgb(0,0,0)" stroke-width="0.20" />
</g>
<g id="p-2" style="fill:none;stroke-linecap:round;stroke-linejoin:round;">
  <text transform="matrix( 1.000 0.000 0.000 1.000 222.100 361.600 )" style="font-family: sans-serif ; font-weight: normal; font-style: normal; fill: rgb(255,0,0)" font-size="4px" text-anchor="middle" dominant-baseline="hanging">Wall 2</text><path d="M 155.100 433.600 H 165.100 C 165.155 433.600 165.200 433.555 165.200 433.500 V 430.600 C 165.200 430.500 165.100 430.600 165.200 430.600 H 171.000 C 171.100 430.600 171.000 430.500 171.000 430.600 V 433.500 C 171.000 433.555 171.045 433.600 171.100 433.600 H 177.100 C 177.155 433.600 177.200 433.555 177.200 433.500 V 430.600 C 177.200 430.500 177.100 430.600 177.200 430.600 H 183.000 C 183.100 430.600 183.000 430.500 183.000 430.600 V 433.500 C 183.000 433.555 183.045 433.600 183.100 433.600 H 189.100 C 189.155 433.600 189.200 433.555 189.200 433.500 V 430.600 C 189.200 430.500 189.100 430.600 189.200 430.600 H 195.000 C 195.100 430.600 195.000 430.500 195.000 430.600 V 433.500 C 195.000 433.555 195.045 433.600 195.100 433.600 H 201.100 C 201.155 433.600 201.200 433.555 201.200 433.500 V 430.600 C 201.200 430.500 201.100 430.600 201.200 430.600 H 207.000 C 207.100 430.600 207.000 430.500 207.000 430.600 V 433.500 C 207.000 433.555 207.045 433.600 207.100 433.600 H 213.100 C 213.155 433.600 213.200 433.555 213.200 433.500 V 430.600 C 213.200 430.500 213.100 430.600 213.200 430.600 H 219.000 C 219.100 430.600 219.000 430.500 219.000 430.600 V 433.500 C 219.000 433.555 219.045 433.600 219.100 433.600 H 225.100 C 225.155 433.600 225.200 433.555 225.200 433.500 V 430.600 C 225.200 430.500 225.100 430.600 225.200 430.600 H 231.000 C 231.100 430.600 231.000 430.500 231.000 430.600 V 433.500 C 231.000 433.555 231.045 433.600 231.100 433.600 H 237.100 C 237.155 433.600 237.200 433.555 237.200 433.500 V 430.600 C 237.200 430.500 237.100 430.600 237.200 430.600 H 243.000 C 243.100 430.600 243.000 430.500 243.000 430.600 V 433.500 C 243.000 433.555 243.045 433.600 243.100 433.600 H 249.100 C 249.155 433.600 249.200 433.555 249.200 433.500 V 430.600 C 249.200 430.500 249.100 430.600 249.200 430.600 H 255.000 C 255.100 430.600 255.000 430.500 255.000 430.600 V 433.500 C 255.000 433.555 255.045 433.600 255.100 433.600 H 261.100 C 261.155 433.600 261.200 433.555 261.200 433.500 V 430.600 C 261.200 430.500 261.100 430.600 261.200 430.600 H 267.000 C 267.100 430.600 267.000 430.500 267.000 430.600 V 433.500 C 267.000 433.555 267.045 433.600 267.100 433.600 H 273.100 C 273.155 433.600 273.200 433.555 273.200 433.500 V 430.600 C 273.200 430.500 273.100 430.600 273.200 430.600 H 279.000 C 279.100 430.600 279.000 430.500 279.000 430.600 V 433.500 C 279.000 433.555 279.045 433.600 279.100 433.600 H 289.100 C 289.155 433.600 289.200 433.555 289.200 433.500 V 430.500 V 420.600 C 289.200 420.500 289.100 420.600 289.200 420.600 H 292.100 C 292.155 420.600 292.200 420.555 292.200 420.500 V 414.500 C 292.200 414.445 292.155 414.400 292.100 414.400 H 289.200 C 289.100 414.400 289.200 414.500 289.200 414.400 V 408.600 C 289.200 408.500 289.100 408.600 289.200 408.600 H 292.100 C 292.155 408.600 292.200 408.555 292.200 408.500 V 402.500 C 292.200 402.445 292.155 402.400 292.100 402.400 H 289.200 C 289.100 402.400 289.200 402.500 289.200 402.400 V 396.600 C 289.200 396.500 289.100 396.600 289.200 396.600 H 292.100 C 292.155 396.600 292.200 396.555 292.200 396.500 V 390.500 C 292.200 390.445 292.155 390.400 292.100 390.400 H 289.200 C 289.100 390.400 289.200 390.500 289.200 390.400 V 384.600 C 289.200 384.500 289.100 384.600 289.200 384.600 H 292.100 C 292.155 384.600 292.200 384.555 292.200 384.500 V 378.500 C 292.200 378.445 292.155 378.400 292.100 378.400 H 289.200 C 289.100 378.400 289.200 378.500 289.200 378.400 V 372.600 C 289.200 372.500 289.100 372.600 289.200 372.600 H 292.100 C 292.155 372.600 292.200 372.555 292.200 372.500 V 366.500 C 292.200 366.445 292.155 366.400 292.100 366.400 H 289.200 C 289.100 366.400 289.200 366.500 289.200 366.400 V 360.600 C 289.200 360.500 289.100 360.600 289.200 360.600 H 292.100 C 292.155 360.600 292.200 360.555 292.200 360.500 V 354.500 C 292.200 354.445 292.155 354.400 292.100 354.400 H 289.200 C 289.100 354.400 289.200 354.500 289.200 354.400 V 348.600 C 289.200 348.500 289.100 348.600 289.200 348.600 H 292.100 C 292.155 348.600 292.200 348.555 292.200 348.500 V 342.500 C 292.200 342.445 292.155 342.400 292.100 342.400 H 289.200 C 289.100 342.400 289.200 342.500 289.200 342.400 V 336.600 C 289.200 336.500 289.100 336.600 289.200 336.600 H 292.100 C 292.155 336.600 292.200 336.555 292.200 336.500 V 330.500 C 292.200 330.445 292.155 330.400 292.100 330.400 H 289.200 C 289.100 330.400 289.200 330.500 289.200 330.400 V 324.600 C 289.200 324.500 289.100 324.600 289.200 324.600 H 292.100 C 292.155 324.600 292.200 324.555 292.200 324.500 V 318.500 C 292.200 318.445 292.155 318.400 292.100 318.400 H 289.200 C 289.100 318.400 289.200 318.500 289.200 318.400 V 312.600 C 289.200 312.500 289.100 312.600 289.200 312.600 H 292.100 C 292.155 312.600 292.200 312.555 292.200 312.500 V 306.500 C 292.200 306.445 292.155 306.400 292.100 306.400 H 289.200 C 289.100 306.400 289.200 306.500 289.200 306.400 V 296.500 V 293.500 C 289.200 293.445 289.155 293.400 289.100 293.400 H 279.100 C 279.045 293.400 279.000 293.445 279.000 293.500 V 296.400 C 279.000 296.500 279.100 296.400 279.000 296.400 H 273.200 C 273.100 296.400 273.200 296.500 273.200 296.400 V 293.500 C 273.200 293.445 273.155 293.400 273.100 293.400 H 267.100 C 267.045 293.400 267.000 293.445 267.000 293.500 V 296.400 C 267.000 296.500 267.100 296.400 267.000 296.400 H 261.200 C 261.100 296.400 261.200 296.500 261.200 296.400 V 293.500 C 261.200 293.445 261.155 293.400 261.100 293.400 H 255.100 C 255.045 293.400 255.000 293.445 255.000 293.500 V 296.400 C 255.000 296.500 255.100 296.400 255.000 296.400 H 249.200 C 249.100 296.400 249.200 296.500 249.200 296.400 V 293.500 C 249.200 293.445 249.155 293.400 249.100 293.400 H 243.100 C 243.045 293.400 243.000 293.445 243.000 293.500 V 296.400 C 243.000 296.500 243.100 296.400 243.000 296.400 H 237.200 C 237.100 296.400 237.200 296.500 237.200 296.400 V 293.500 C 237.200 293.445 237.155 293.400 237.100 293.400 H 231.100 C 231.045 293.400 231.000 293.445 231.000 293.500 V 296.400 C 231.000 296.500 231.100 296.400 231.000 296.400 H 225.200 C 225.100 296.400 225.200 296.500 225.200 296.400 V 293.500 C 225.200 293.445 225.155 293.400 225.100 293.400 H 219.100 C 219.045 293.400 219.000 293.445 219.000 293.500 V 296.400 C 219.000 296.500 219.100 296.400 219.000 296.400 H 213.200 C 213.100 296.400 213.200 296.500 213.200 296.400 V 293.500 C 213.200 293.445 213.155 293.400 213.100 293.400 H 207.100 C 207.045 293.400 207.000 293.445 207.000 293.500 V 296.400 C 207.000 296.500 207.100 296.400 207.000 296.400 H 201.200 C 201.100 296.400 201.200 296.500 201.200 296.400 V 293.500 C 201.200 293.445 201.155 293.400 201.100 293.400 H 195.100 C 195.045 293.400 195.000 293.445 195.000 293.500 V 296.400 C 195.000 296.500 195.100 296.400 195.000 296.400 H 189.200 C 189.100 296.400 189.200 296.500 189.200 296.400 V 293.500 C 189.200 293.445 189.155 293.400 189.100 293.400 H 183.100 C 183.045 293.400 183.000 293.445 183.000 293.500 V 296.400 C 183.000 296.500 183.100 296.400 183.000 296.400 H 177.200 C 177.100 296.400 177.200 296.500 177.200 296.400 V 293.500 C 177.200 293.445 177.155 293.400 177.100 293.400 H 171.100 C 171.045 293.400 171.000 293.445 171.000 293.500 V 296.400 C 171.000 296.500 171.100 296.400 171.000 296.400 H 165.200 C 165.100 296.400 165.200 296.500 165.200 296.400 V 293.500 C 165.200 293.445 165.155 293.400 165.100 293.400 H 155.100 C 155.045 293.400 155.000 293.445 155.000 293.500 V 296.500 V 306.400 C 155.000 306.500 155.100 306.400 155.000 306.400 H 152.100 C 152.045 306.400 152.000 306.445 152.000 306.500 V 312.500 C 152.000 312.555 152.045 312.600 152.100 312.600 H 155.000 C 155.100 312.600 155.000 312.500 155.000 312.600 V 318.400 C 155.000 318.500 155.100 318.400 155.000 318.400 H 152.100 C 152.045 318.400 152.000 318.445 152.000 318.500 V 324.500 C 152.000 324.555 152.045 324.600 152.100 324.600 H 155.000 C 155.100 324.600 155.000 324.500 155.000 324.600 V 330.400 C 155.000 330.500 155.100 330.400 155.000 330.400 H 152.100 C 152.045 330.400 152.000 330.445 152.000 330.500 V 336.500 C 152.000 336.555 152.045 336.600 152.100 336.600 H 155.000 C 155.100 336.600 155.000 336.500 155.000 336.600 V 342.400 C 155.000 342.500 155.100 342.400 155.000 342.400 H 152.100 C 152.045 342.400 152.000 342.445 152.000 342.500 V 348.500 C 152.000 348.555 152.045 348.600 152.100 348.600 H 155.000 C 155.100 348.600 155.000 348.500 155.000 348.600 V 354.400 C 155.000 354.500 155.100 354.400 155.000 354.400 H 152.100 C 152.045 354.400 152.000 354.445 152.000 354.500 V 360.500 C 152.000 360.555 152.045 360.600 152.100 360.600 H 155.000 C 155.100 360.600 155.000 360.500 155.000 360.600 V 366.400 C 155.000 366.500 155.100 366.400 155.000 366.400 H 152.100 C 152.045 366.400 152.000 366.445 152.000 366.500 V 372.500 C 152.000 372.555 152.045 372.600 152.100 372.600 H 155.000 C 155.100 372.600 155.000 372.500 155.000 372.600 V 378.400 C 155.000 378.500 155.100 378.400 155.000 378.400 H 152.100 C 152.045 378.400 152.000 378.445 152.000 378.500 V 384.500 C 152.000 384.555 152.045 384.600 152.100 384.600 H 155.000 C 155.100 384.600 155.000 384.500 155.000 384.600 V 390.400 C 155.000 390.500 155.100 390.400 155.000 390.400 H 152.100 C 152.045 390.400 152.000 390.445 152.000 390.500 V 396.500 C 152.000 396.555 152.045 396.600 152.100 396.600 H 155.000 C 155.100 396.600 155.000 396.500 155.000 396.600 V 402.400 C 155.000 402.500 155.100 402.400 155.000 402.400 H 152.100 C 152.045 402.400 152.000 402.445 152.000 402.500 V 408.500 C 152.000 408.555 152.045 408.600 152.100 408.600 H 155.000 C 155.100 408.600 155.000 408.500 155.000 408.600 V 414.400 C 155.000 414.500 155.100 414.400 155.000 414.400 H 152.100 C 152.045 414.400 152.000 414.445 152.000 414.500 V 420.500 C 152.000 420.555 152.045 420.600 152.100 420.600 H 155.000 C 155.100 420.600 155.000 420.500 155.000 420.600 V 430.500 V 433.500 C 155.000 433.555 155.045 433.600 155.100 433.600" stroke="rgb(0,0,0)" stroke-width="0.20" />
</g>
<g id="p-3" style="fill:none;stroke-linecap:round;stroke-linejoin:round;">
  <text transform="matrix( 1.000 0.000 0.000 1.000 222.100 219.900 )" style="font-family: sans-serif ; font-weight: normal; font-style: normal; fill: rgb(255,0,0)" font-size="4px" text-anchor="middle" dominant-baseline="hanging">Wall 4</text><path d="M 155.100 291.900 H 165.100 C 165.155 291.900 165.200 291.855 165.200 291.800 V 288.900 C 165.200 288.800 165.100 288.900 165.200 288.900 H 171.000 C 171.100 288.900 171.000 288.800 171.000 288.900 V 291.800 C 171.000 291.855 171.045 291.900 171.100 291.900 H 177.100 C 177.155 291.900 177.200 291.855 177.200 291.800 V 288.900 C 177.200 288.800 177.100 288.900 177.200 288.900 H 183.000 C 183.100 288.900 183.000 288.800 183.000 288.900 V 291.800 C 183.000 291.855 183.045 291.900 183.100 291.900 H 189.100 C 189.155 291.900 189.200 291.855 189.200 291.800 V 288.900 C 189.200 288.800 189.100 288.900 189.200 288.900 H 195.000 C 195.100 288.900 195.000 288.800 195.000 288.900 V 291.800 C 195.000 291.855 195.045 291.900 195.100 291.900 H 201.100 C 201.155 291.900 201.200 291.855 201.200 291.800 V 288.900 C 201.200 288.800 201.100 288.900 201.200 288.900 H 207.000 C 207.100 288.900 207.000 288.800 207.000 288.900 V 291.800 C 207.000 291.855 207.045 291.900 207.100 291.900 H 213.100 C 213.155 291.900 213.200 291.855 213.200 291.800 V 288.900 C 213.200 288.800 213.100 288.900 213.200 288.900 H 219.000 C 219.100 288.900 219.000 288.800 219.000 288.900 V 291.800 C 219.000 291.855 219.045 291.900 219.100 291.900 H 225.100 C 225.155 291.900 225.200 291.855 225.200 291.800 V 288.900 C 225.200 288.800 225.100 288.900 225.200 288.900 H 231.000 C 231.100 288.900 231.000 288.800 231.000 288.900 V 291.800 C 231.000 291.855 231.045 291.900 231.100 291.900 H 237.100 C 237.155 291.900 237.200 291.855 237.200 291.800 V 288.900 C 237.200 288.800 237.100 288.900 237.200 288.900 H 243.000 C 243.100 288.900 243.000 288.800 243.000 288.900 V 291.800 C 243.000 291.855 243.045 291.900 243.100 291.900 H 249.100 C 249.155 291.900 249.200 291.855 249.200 291.800 V 288.900 C 249.200 288.800 249.100 288.900 249.200 288.900 H 255.000 C 255.100 288.900 255.000 288.800 255.000 288.900 V 291.800 C 255.000 291.855 255.045 291.900 255.100 291.900 H 261.100 C 261.155 291.900 261.200 291.855 261.200 291.800 V 288.900 C 261.200 288.800 261.100 288.900 261.200 288.900 H 267.000 C 267.100 288.900 267.000 288.800 267.000 288.900 V 291.800 C 267.000 291.855 267.045 291.900 267.100 291.900 H 273.100 C 273.155 291.900 273.200 291.855 273.200 291.800 V 288.900 C 273.200 288.800 273.100 288.900 273.200 288.900 H 279.000 C 279.100 288.900 279.000 288.800 279.000 288.900 V 291.800 C 279.000 291.855 279.045 291.900 279.100 291.900 H 289.100 C 289.155 291.900 289.200 291.855 289.200 291.800 V 288.800 V 278.900 C 289.200 278.800 289.100 278.900 289.200 278.900 H 292.100 C 292.155 278.900 292.200 278.855 292.200 278.800 V 272.800 C 292.200 272.745 292.155 272.700 292.100 272.700 H 289.200 C 289.100 272.700 289.200 272.800 289.200 272.700 V 266.900 C 289.200 266.800 289.100 266.900 289.200 266.900 H 292.100 C 292.155 266.900 292.200 266.855 292.200 266.800 V 260.800 C 292.200 260.745 292.155 260.700 292.100 260.700 H 289.200 C 289.100 260.700 289.200 260.800 289.200 260.700 V 254.900 C 289.200 254.800 289.100 254.900 289.200 254.900 H 292.100 C 292.155 254.900 292.200 254.855 292.200 254.800 V 248.800 C 292.200 248.745 292.155 248.700 292.100 248.700 H 289.200 C 289.100 248.700 289.200 248.800 289.200 248.700 V 242.900 C 289.200 242.800 289.100 242.900 289.200 242.900 H 292.100 C 292.155 242.900 292.200 242.855 292.200 242.800 V 236.800 C 292.200 236.745 292.155 236.700 292.100 236.700 H 289.200 C 289.100 236.700 289.200 236.800 289.200 236.700 V 230.900 C 289.200 230.800 289.100 230.900 289.200 230.900 H 292.100 C 292.155 230.900 292.200 230.855 292.200 230.800 V 224.800 C 292.200 224.745 292.155 224.700 292.100 224.700 H 289.200 C 289.100 224.700 289.200 224.800 289.200 224.700 V 218.900 C 289.200 218.800 289.100 218.900 289.200 218.900 H 292.100 C 292.155 218.900 292.200 218.855 292.200 218.800 V 212.800 C 292.200 212.745 292.155 212.700 292.100 212.700 H 289.200 C 289.100 212.700 289.200 212.800 289.200 212.700 V 206.900 C 289.200 206.800 289.100 206.900 289.200 206.900 H 292.100 C 292.155 206.900 292.200 206.855 292.200 206.800 V 200.800 C 292.200 200.745 292.155 200.700 292.100 200.700 H 289.200 C 289.100 200.700 289.200 200.800 289.200 200.700 V 194.900 C 289.200 194.800 289.100 194.900 289.200 194.900 H 292.100 C 292.155 194.900 292.200 194.855 292.200 194.800 V 188.800 C 292.200 188.745 292.155 188.700 292.100 188.700 H 289.200 C 289.100 188.700 289.200 188.800 289.200 188.700 V 182.900 C 289.200 182.800 289.100 182.900 289.200 182.900 H 292.100 C 292.155 182.900 292.200 182.855 292.200 182.800 V 176.800 C 292.200 176.745 292.155 176.700 292.100 176.700 H 289.200 C 289.100 176.700 289.200 176.800 289.200 176.700 V 170.900 C 289.200 170.800 289.100 170.900 289.200 170.900 H 292.100 C 292.155 170.900 292.200 170.855 292.200 170.800 V 164.800 C 292.200 164.745 292.155 164.700 292.100 164.700 H 289.200 C 289.100 164.700 289.200 164.800 289.200 164.700 V 154.800 V 151.800 C 289.200 151.745 289.155 151.700 289.100 151.700 H 279.100 C 279.045 151.700 279.000 151.745 279.000 151.800 V 154.700 C 279.000 154.800 279.100 154.700 279.000 154.700 H 273.200 C 273.100 154.700 273.200 154.800 273.200 154.700 V 151.800 C 273.200 151.745 273.155 151.700 273.100 151.700 H 267.100 C 267.045 151.700 267.000 151.745 267.000 151.800 V 154.700 C 267.000 154.800 267.100 154.700 267.000 154.700 H 261.200 C 261.100 154.700 261.200 154.800 261.200 154.700 V 151.800 C 261.200 151.745 261.155 151.700 261.100 151.700 H 255.100 C 255.045 151.700 255.000 151.745 255.000 151.800 V 154.700 C 255.000 154.800 255.100 154.700 255.000 154.700 H 249.200 C 249.100 154.700 249.200 154.800 249.200 154.700 V 151.800 C 249.200 151.745 249.155 151.700 249.100 151.700 H 243.100 C 243.045 151.700 243.000 151.745 243.000 151.800 V 154.700 C 243.000 154.800 243.100 154.700 243.000 154.700 H 237.200 C 237.100 154.700 237.200 154.800 237.200 154.700 V 151.800 C 237.200 151.745 237.155 151.700 237.100 151.700 H 231.100 C 231.045 151.700 231.000 151.745 231.000 151.800 V 154.700 C 231.000 154.800 231.100 154.700 231.000 154.700 H 225.200 C 225.100 154.700 225.200 154.800 225.200 154.700 V 151.800 C 225.200 151.745 225.155 151.700 225.100 151.700 H 219.100 C 219.045 151.700 219.000 151.745 219.000 151.800 V 154.700 C 219.000 154.800 219.100 154.700 219.000 154.700 H 213.200 C 213.100 154.700 213.200 154.800 213.200 154.700 V 151.800 C 213.200 151.745 213.155 151.700 213.100 151.700 H 207.100 C 207.045 151.700 207.000 151.745 207.000 151.800 V 154.700 C 207.000 154.800 207.100 154.700 207.000 154.700 H 201.200 C 201.100 154.700 201.200 154.800 201.200 154.700 V 151.800 C 201.200 151.745 201.155 151.700 201.100 151.700 H 195.100 C 195.045 151.700 195.000 151.745 195.000 151.800 V 154.700 C 195.000 154.800 195.100 154.700 195.000 154.700 H 189.200 C 189.100 154.700 189.200 154.800 189.200 154.700 V 151.800 C 189.200 151.745 189.155 151.700 189.100 151.700 H 183.100 C 183.045 151.700 183.000 151.745 183.000 151.800 V 154.700 C 183.000 154.800 183.100 154.700 183.000 154.700 H 177.200 C 177.100 154.700 177.200 154.800 177.200 154.700 V 151.800 C 177.200 151.745 177.155 151.700 177.100 151.700 H 171.100 C 171.045 151.700 171.000 151.745 171.000 151.800 V 154.700 C 171.000 154.800 171.100 154.700 171.000 154.700 H 165.200 C 165.100 154.700 165.200 154.800 165.200 154.700 V 151.800 C 165.200 151.745 165.155 151.700 165.100 151.700 H 155.100 C 155.045 151.700 155.000 151.745 155.000 151.800 V 154.800 V 164.700 C 155.000 164.800 155.100 164.700 155.000 164.700 H 152.100 C 152.045 164.700 152.000 164.745 152.000 164.800 V 170.800 C 152.000 170.855 152.045 170.900 152.100 170.900 H 155.000 C 155.100 170.900 155.000 170.800 155.000 170.900 V 176.700 C 155.000 176.800 155.100 176.700 155.000 176.700 H 152.100 C 152.045 176.700 152.000 176.745 152.000 176.800 V 182.800 C 152.000 182.855 152.045 182.900 152.100 182.900 H 155.000 C 155.100 182.900 155.000 182.800 155.000 182.900 V 188.700 C 155.000 188.800 155.100 188.700 155.000 188.700 H 152.100 C 152.045 188.700 152.000 188.745 152.000 188.800 V 194.800 C 152.000 194.855 152.045 194.900 152.100 194.900 H 155.000 C 155.100 194.900 155.000 194.800 155.000 194.900 V 200.700 C 155.000 200.800 155.100 200.700 155.000 200.700 H 152.100 C 152.045 200.700 152.000 200.745 152.000 200.800 V 206.800 C 152.000 206.855 152.045 206.900 152.100 206.900 H 155.000 C 155.100 206.900 155.000 206.800 155.000 206.900 V 212.700 C 155.000 212.800 155.100 212.700 155.000 212.700 H 152.100 C 152.045 212.700 152.000 212.745 152.000 212.800 V 218.800 C 152.000 218.855 152.045 218.900 152.100 218.900 H 155.000 C 155.100 218.900 155.000 218.800 155.000 218.900 V 224.700 C 155.000 224.800 155.100 224.700 155.000 224.700 H 152.100 C 152.045 224.700 152.000 224.745 152.000 224.800 V 230.800 C 152.000 230.855 152.045 230.900 152.100 230.900 H 155.000 C 155.100 230.900 155.000 230.800 155.000 230.900 V 236.700 C 155.000 236.800 155.100 236.700 155.000 236.700 H 152.100 C 152.045 236.700 152.000 236.745 152.000 236.800 V 242.800 C 152.000 242.855 152.045 242.900 152.100 242.900 H 155.000 C 155.100 242.900 155.000 242.800 155.000 242.900 V 248.700 C 155.000 248.800 155.100 248.700 155.000 248.700 H 152.100 C 152.045 248.700 152.000 248.745 152.000 248.800 V 254.800 C 152.000 254.855 152.045 254.900 152.100 254.900 H 155.000 C 155.100 254.900 155.000 254.800 155.000 254.900 V 260.700 C 155.000 260.800 155.100 260.700 155.000 260.700 H 152.100 C 152.045 260.700 152.000 260.745 152.000 260.800 V 266.800 C 152.000 266.855 152.045 266.900 152.100 266.900 H 155.000 C 155.100 266.900 155.000 266.800 155.000 266.900 V 272.700 C 155.000 272.800 155.100 272.700 155.000 272.700 H 152.100 C 152.045 272.700 152.000 272.745 152.000 272.800 V 278.800 C 152.000 278.855 152.045 278.900 152.100 278.900 H 155.000 C 155.100 278.900 155.000 278.800 155.000 278.900 V 288.800 V 291.800 C 155.000 291.855 155.045 291.900 155.100 291.900" stroke="rgb(0,0,0)" stroke-width="0.20" />
</g>
<g id="p-4" style="fill:none;stroke-linecap:round;stroke-linejoin:round;">
  <text transform="matrix( 1.000 0.000 0.000 1.000 80.400 219.900 )" style="font-family: sans-serif ; font-weight: normal; font-style: normal; fill: rgb(255,0,0)" font-size="4px" text-anchor="middle" dominant-baseline="hanging">Wall 3</text><path d="M 13.400 291.900 H 23.400 C 23.455 291.900 23.500 291.855 23.500 291.800 V 288.900 C 23.500 288.800 23.400 288.900 23.500 288.900 H 29.300 C 29.400 288.900 29.300 288.800 29.300 288.900 V 291.800 C 29.300 291.855 29.345 291.900 29.400 291.900 H 35.400 C 35.455 291.900 35.500 291.855 35.500 291.800 V 288.900 C 35.500 288.800 35.400 288.900 35.500 288.900 H 41.300 C 41.400 288.900 41.300 288.800 41.300 288.900 V 291.800 C 41.300 291.855 41.345 291.900 41.400 291.900 H 47.400 C 47.455 291.900 47.500 291.855 47.500 291.800 V 288.900 C 47.500 288.800 47.400 288.900 47.500 288.900 H 53.300 C 53.400 288.900 53.300 288.800 53.300 288.900 V 291.800 C 53.300 291.855 53.345 291.900 53.400 291.900 H 59.400 C 59.455 291.900 59.500 291.855 59.500 291.800 V 288.900 C 59.500 288.800 59.400 288.900 59.500 288.900 H 65.300 C 65.400 288.900 65.300 288.800 65.300 288.900 V 291.800 C 65.300 291.855 65.345 291.900 65.400 291.900 H 71.400 C 71.455 291.900 71.500 291.855 71.500 291.800 V 288.900 C 71.500 288.800 71.400 288.900 71.500 288.900 H 77.300 C 77.400 288.900 77.300 288.800 77.300 288.900 V 291.800 C 77.300 291.855 77.345 291.900 77.400 291.900 H 83.400 C 83.455 291.900 83.500 291.855 83.500 291.800 V 288.900 C 83.500 288.800 83.400 288.900 83.500 288.900 H 89.300 C 89.400 288.900 89.300 288.800 89.300 288.900 V 291.800 C 89.300 291.855 89.345 291.900 89.400 291.900 H 95.400 C 95.455 291.900 95.500 291.855 95.500 291.800 V 288.900 C 95.500 288.800 95.400 288.900 95.500 288.900 H 101.300 C 101.400 288.900 101.300 288.800 101.300 288.900 V 291.800 C 101.300 291.855 101.345 291.900 101.400 291.900 H 107.400 C 107.455 291.900 107.500 291.855 107.500 291.800 V 288.900 C 107.500 288.800 107.400 288.900 107.500 288.900 H 113.300 C 113.400 288.900 113.300 288.800 113.300 288.900 V 291.800 C 113.300 291.855 113.345 291.900 113.400 291.900 H 119.400 C 119.455 291.900 119.500 291.855 119.500 291.800 V 288.900 C 119.500 288.800 119.400 288.900 119.500 288.900 H 125.300 C 125.400 288.900 125.300 288.800 125.300 288.900 V 291.800 C 125.300 291.855 125.345 291.900 125.400 291.900 H 131.400 C 131.455 291.900 131.500 291.855 131.500 291.800 V 288.900 C 131.500 288.800 131.400 288.900 131.500 288.900 H 137.300 C 137.400 288.900 137.300 288.800 137.300 288.900 V 291.800 C 137.300 291.855 137.345 291.900 137.400 291.900 H 147.400 H 150.400 C 150.455 291.900 150.500 291.855 150.500 291.800 V 288.800 V 278.800 C 150.500 278.745 150.455 278.700 150.400 278.700 H 147.500 C 147.400 278.700 147.500 278.800 147.500 278.700 V 272.900 C 147.500 272.800 147.400 272.900 147.500 272.900 H 150.400 C 150.455 272.900 150.500 272.855 150.500 272.800 V 266.800 C 150.500 266.745 150.455 266.700 150.400 266.700 H 147.500 C 147.400 266.700 147.500 266.800 147.500 266.700 V 260.900 C 147.500 260.800 147.400 260.900 147.500 260.900 H 150.400 C 150.455 260.900 150.500 260.855 150.500 260.800 V 254.800 C 150.500 254.745 150.455 254.700 150.400 254.700 H 147.500 C 147.400 254.700 147.500 254.800 147.500 254.700 V 248.900 C 147.500 248.800 147.400 248.900 147.500 248.900 H 150.400 C 150.455 248.900 150.500 248.855 150.500 248.800 V 242.800 C 150.500 242.745 150.455 242.700 150.400 242.700 H 147.500 C 147.400 242.700 147.500 242.800 147.500 242.700 V 236.900 C 147.500 236.800 147.400 236.900 147.500 236.900 H 150.400 C 150.455 236.900 150.500 236.855 150.500 236.800 V 230.800 C 150.500 230.745 150.455 230.700 150.400 230.700 H 147.500 C 147.400 230.700 147.500 230.800 147.500 230.700 V 224.900 C 147.500 224.800 147.400 224.900 147.500 224.900 H 150.400 C 150.455 224.900 150.500 224.855 150.500 224.800 V 218.800 C 150.500 218.745 150.455 218.700 150.400 218.700 H 147.500 C 147.400 218.700 147.500 218.800 147.500 218.700 V 212.900 C 147.500 212.800 147.400 212.900 147.500 212.900 H 150.400 C 150.455 212.900 150.500 212.855 150.500 212.800 V 206.800 C 150.500 206.745 150.455 206.700 150.400 206.700 H 147.500 C 147.400 206.700 147.500 206.800 147.500 206.700 V 200.900 C 147.500 200.800 147.400 200.900 147.500 200.900 H 150.400 C 150.455 200.900 150.500 200.855 150.500 200.800 V 194.800 C 150.500 194.745 150.455 194.700 150.400 194.700 H 147.500 C 147.400 194.700 147.500 194.800 147.500 194.700 V 188.900 C 147.500 188.800 147.400 188.900 147.500 188.900 H 150.400 C 150.455 188.900 150.500 188.855 150.500 188.800 V 182.800 C 150.500 182.745 150.455 182.700 150.400 182.700 H 147.500 C 147.400 182.700 147.500 182.800 147.500 182.700 V 176.900 C 147.500 176.800 147.400 176.900 147.500 176.900 H 150.400 C 150.455 176.900 150.500 176.855 150.500 176.800 V 170.800 C 150.500 170.745 150.455 170.700 150.400 170.700 H 147.500 C 147.400 170.700 147.500 170.800 147.500 170.700 V 164.900 C 147.500 164.800 147.400 164.900 147.500 164.900 H 150.400 C 150.455 164.900 150.500 164.855 150.500 164.800 V 154.800 V 151.800 C 150.500 151.745 150.455 151.700 150.400 151.700 H 147.400 H 137.400 C 137.345 151.700 137.300 151.745 137.300 151.800 V 154.700 C 137.300 154.800 137.400 154.700 137.300 154.700 H 131.500 C 131.400 154.700 131.500 154.800 131.500 154.700 V 151.800 C 131.500 151.745 131.455 151.700 131.400 151.700 H 125.400 C 125.345 151.700 125.300 151.745 125.300 151.800 V 154.700 C 125.300 154.800 125.400 154.700 125.300 154.700 H 119.500 C 119.400 154.700 119.500 154.800 119.500 154.700 V 151.800 C 119.500 151.745 119.455 151.700 119.400 151.700 H 113.400 C 113.345 151.700 113.300 151.745 113.300 151.800 V 154.700 C 113.300 154.800 113.400 154.700 113.300 154.700 H 107.500 C 107.400 154.700 107.500 154.800 107.500 154.700 V 151.800 C 107.500 151.745 107.455 151.700 107.400 151.700 H 101.400 C 101.345 151.700 101.300 151.745 101.300 151.800 V 154.700 C 101.300 154.800 101.400 154.700 101.300 154.700 H 95.500 C 95.400 154.700 95.500 154.800 95.500 154.700 V 151.800 C 95.500 151.745 95.455 151.700 95.400 151.700 H 89.400 C 89.345 151.700 89.300 151.745 89.300 151.800 V 154.700 C 89.300 154.800 89.400 154.700 89.300 154.700 H 83.500 C 83.400 154.700 83.500 154.800 83.500 154.700 V 151.800 C 83.500 151.745 83.455 151.700 83.400 151.700 H 77.400 C 77.345 151.700 77.300 151.745 77.300 151.800 V 154.700 C 77.300 154.800 77.400 154.700 77.300 154.700 H 71.500 C 71.400 154.700 71.500 154.800 71.500 154.700 V 151.800 C 71.500 151.745 71.455 151.700 71.400 151.700 H 65.400 C 65.345 151.700 65.300 151.745 65.300 151.800 V 154.700 C 65.300 154.800 65.400 154.700 65.300 154.700 H 59.500 C 59.400 154.700 59.500 154.800 59.500 154.700 V 151.800 C 59.500 151.745 59.455 151.700 59.400 151.700 H 53.400 C 53.345 151.700 53.300 151.745 53.300 151.800 V 154.700 C 53.300 154.800 53.400 154.700 53.300 154.700 H 47.500 C 47.400 154.700 47.500 154.800 47.500 154.700 V 151.800 C 47.500 151.745 47.455 151.700 47.400 151.700 H 41.400 C 41.345 151.700 41.300 151.745 41.300 151.800 V 154.700 C 41.300 154.800 41.400 154.700 41.300 154.700 H 35.500 C 35.400 154.700 35.500 154.800 35.500 154.700 V 151.800 C 35.500 151.745 35.455 151.700 35.400 151.700 H 29.400 C 29.345 151.700 29.300 151.745 29.300 151.800 V 154.700 C 29.300 154.800 29.400 154.700 29.300 154.700 H 23.500 C 23.400 154.700 23.500 154.800 23.500 154.700 V 151.800 C 23.500 151.745 23.455 151.700 23.400 151.700 H 13.400 H 10.400 C 10.345 151.700 10.300 151.745 10.300 151.800 V 154.800 V 164.800 C 10.300 164.855 10.345 164.900 10.400 164.900 H 13.300 C 13.400 164.900 13.300 164.800 13.300 164.900 V 170.700 C 13.300 170.800 13.400 170.700 13.300 170.700 H 10.400 C 10.345 170.700 10.300 170.745 10.300 170.800 V 176.800 C 10.300 176.855 10.345 176.900 10.400 176.900 H 13.300 C 13.400 176.900 13.300 176.800 13.300 176.900 V 182.700 C 13.300 182.800 13.400 182.700 13.300 182.700 H 10.400 C 10.345 182.700 10.300 182.745 10.300 182.800 V 188.800 C 10.300 188.855 10.345 188.900 10.400 188.900 H 13.300 C 13.400 188.900 13.300 188.800 13.300 188.900 V 194.700 C 13.300 194.800 13.400 194.700 13.300 194.700 H 10.400 C 10.345 194.700 10.300 194.745 10.300 194.800 V 200.800 C 10.300 200.855 10.345 200.900 10.400 200.900 H 13.300 C 13.400 200.900 13.300 200.800 13.300 200.900 V 206.700 C 13.300 206.800 13.400 206.700 13.300 206.700 H 10.400 C 10.345 206.700 10.300 206.745 10.300 206.800 V 212.800 C 10.300 212.855 10.345 212.900 10.400 212.900 H 13.300 C 13.400 212.900 13.300 212.800 13.300 212.900 V 218.700 C 13.300 218.800 13.400 218.700 13.300 218.700 H 10.400 C 10.345 218.700 10.300 218.745 10.300 218.800 V 224.800 C 10.300 224.855 10.345 224.900 10.400 224.900 H 13.300 C 13.400 224.900 13.300 224.800 13.300 224.900 V 230.700 C 13.300 230.800 13.400 230.700 13.300 230.700 H 10.400 C 10.345 230.700 10.300 230.745 10.300 230.800 V 236.800 C 10.300 236.855 10.345 236.900 10.400 236.900 H 13.300 C 13.400 236.900 13.300 236.800 13.300 236.900 V 242.700 C 13.300 242.800 13.400 242.700 13.300 242.700 H 10.400 C 10.345 242.700 10.300 242.745 10.300 242.800 V 248.800 C 10.300 248.855 10.345 248.900 10.400 248.900 H 13.300 C 13.400 248.900 13.300 248.800 13.300 248.900 V 254.700 C 13.300 254.800 13.400 254.700 13.300 254.700 H 10.400 C 10.345 254.700 10.300 254.745 10.300 254.800 V 260.800 C 10.300 260.855 10.345 260.900 10.400 260.900 H 13.300 C 13.400 260.900 13.300 260.800 13.300 260.900 V 266.700 C 13.300 266.800 13.400 266.700 13.300 266.700 H 10.400 C 10.345 266.700 10.300 266.745 10.300 266.800 V 272.800 C 10.300 272.855 10.345 272.900 10.400 272.900 H 13.300 C 13.400 272.900 13.300 272.800 13.300 272.900 V 278.700 C 13.300 278.800 13.400 278.700 13.300 278.700 H 10.400 C 10.345 278.700 10.300 278.745 10.300 278.800 V 288.800 V 291.800 C 10.300 291.855 10.345 291.900 10.400 291.900 H 13.400" stroke="rgb(0,0,0)" stroke-width="0.20" />
</g>
<g id="p-5" style="fill:none;stroke-linecap:round;stroke-linejoin:round;">
  <text transform="matrix( 1.000 0.000 0.000 1.000 80.400 78.200 )" style="font-family: sans-serif ; font-weight: normal; font-style: normal; fill: rgb(255,0,0)" font-size="4px" text-anchor="middle" dominant-baseline="hanging">Top</text><path d="M 13.400 147.200 H 23.300 C 23.400 147.200 23.300 147.100 23.300 147.200 V 150.100 C 23.300 150.155 23.345 150.200 23.400 150.200 H 29.400 C 29.455 150.200 29.500 150.155 29.500 150.100 V 147.200 C 29.500 147.100 29.400 147.200 29.500 147.200 H 35.300 C 35.400 147.200 35.300 147.100 35.300 147.200 V 150.100 C 35.300 150.155 35.345 150.200 35.400 150.200 H 41.400 C 41.455 150.200 41.500 150.155 41.500 150.100 V 147.200 C 41.500 147.100 41.400 147.200 41.500 147.200 H 47.300 C 47.400 147.200 47.300 147.100 47.300 147.200 V 150.100 C 47.300 150.155 47.345 150.200 47.400 150.200 H 53.400 C 53.455 150.200 53.500 150.155 53.500 150.100 V 147.200 C 53.500 147.100 53.400 147.200 53.500 147.200 H 59.300 C 59.400 147.200 59.300 147.100 59.300 147.200 V 150.100 C 59.300 150.155 59.345 150.200 59.400 150.200 H 65.400 C 65.455 150.200 65.500 150.155 65.500 150.100 V 147.200 C 65.500 147.100 65.400 147.200 65.500 147.200 H 71.300 C 71.400 147.200 71.300 147.100 71.300 147.200 V 150.100 C 71.300 150.155 71.345 150.200 71.400 150.200 H 77.400 C 77.455 150.200 77.500 150.155 77.500 150.100 V 147.200 C 77.500 147.100 77.400 147.200 77.500 147.200 H 83.300 C 83.400 147.200 83.300 147.100 83.300 147.200 V 150.100 C 83.300 150.155 83.345 150.200 83.400 150.200 H 89.400 C 89.455 150.200 89.500 150.155 89.500 150.100 V 147.200 C 89.500 147.100 89.400 147.200 89.500 147.200 H 95.300 C 95.400 147.200 95.300 147.100 95.300 147.200 V 150.100 C 95.300 150.155 95.345 150.200 95.400 150.200 H 101.400 C 101.455 150.200 101.500 150.155 101.500 150.100 V 147.200 C 101.500 147.100 101.400 147.200 101.500 147.200 H 107.300 C 107.400 147.200 107.300 147.100 107.300 147.200 V 150.100 C 107.300 150.155 107.345 150.200 107.400 150.200 H 113.400 C 113.455 150.200 113.500 150.155 113.500 150.100 V 147.200 C 113.500 147.100 113.400 147.200 113.500 147.200 H 119.300 C 119.400 147.200 119.300 147.100 119.300 147.200 V 150.100 C 119.300 150.155 119.345 150.200 119.400 150.200 H 125.400 C 125.455 150.200 125.500 150.155 125.500 150.100 V 147.200 C 125.500 147.100 125.400 147.200 125.500 147.200 H 131.300 C 131.400 147.200 131.300 147.100 131.300 147.200 V 150.100 C 131.300 150.155 131.345 150.200 131.400 150.200 H 137.400 C 137.455 150.200 137.500 150.155 137.500 150.100 V 147.200 C 137.500 147.100 137.400 147.200 137.500 147.200 H 147.400 C 147.455 147.200 147.500 147.155 147.500 147.100 V 137.200 C 147.500 137.100 147.400 137.200 147.500 137.200 H 150.400 C 150.455 137.200 150.500 137.155 150.500 137.100 V 131.100 C 150.500 131.045 150.455 131.000 150.400 131.000 H 147.500 C 147.400 131.000 147.500 131.100 147.500 131.000 V 125.200 C 147.500 125.100 147.400 125.200 147.500 125.200 H 150.400 C 150.455 125.200 150.500 125.155 150.500 125.100 V 119.100 C 150.500 119.045 150.455 119.000 150.400 119.000 H 147.500 C 147.400 119.000 147.500 119.100 147.500 119.000 V 113.200 C 147.500 113.100 147.400 113.200 147.500 113.200 H 150.400 C 150.455 113.200 150.500 113.155 150.500 113.100 V 107.100 C 150.500 107.045 150.455 107.000 150.400 107.000 H 147.500 C 147.400 107.000 147.500 107.100 147.500 107.000 V 101.200 C 147.500 101.100 147.400 101.200 147.500 101.200 H 150.400 C 150.455 101.200 150.500 101.155 150.500 101.100 V 95.100 C 150.500 95.045 150.455 95.000 150.400 95.000 H 147.500 C 147.400 95.000 147.500 95.100 147.500 95.000 V 89.200 C 147.500 89.100 147.400 89.200 147.500 89.200 H 150.400 C 150.455 89.200 150.500 89.155 150.500 89.100 V 83.100 C 150.500 83.045 150.455 83.000 150.400 83.000 H 147.500 C 147.400 83.000 147.500 83.100 147.500 83.000 V 77.200 C 147.500 77.100 147.400 77.200 147.500 77.200 H 150.400 C 150.455 77.200 150.500 77.155 150.500 77.100 V 71.100 C 150.500 71.045 150.455 71.000 150.400 71.000 H 147.500 C 147.400 71.000 147.500 71.100 147.500 71.000 V 65.200 C 147.500 65.100 147.400 65.200 147.500 65.200 H 150.400 C 150.455 65.200 150.500 65.155 150.500 65.100 V 59.100 C 150.500 59.045 150.455 59.000 150.400 59.000 H 147.500 C 147.400 59.000 147.500 59.100 147.500 59.000 V 53.200 C 147.500 53.100 147.400 53.200 147.500 53.200 H 150.400 C 150.455 53.200 150.500 53.155 150.500 53.100 V 47.100 C 150.500 47.045 150.455 47.000 150.400 47.000 H 147.500 C 147.400 47.000 147.500 47.100 147.500 47.000 V 41.200 C 147.500 41.100 147.400 41.200 147.500 41.200 H 150.400 C 150.455 41.200 150.500 41.155 150.500 41.100 V 35.100 C 150.500 35.045 150.455 35.000 150.400 35.000 H 147.500 C 147.400 35.000 147.500 35.100 147.500 35.000 V 29.200 C 147.500 29.100 147.400 29.200 147.500 29.200 H 150.400 C 150.455 29.200 150.500 29.155 150.500 29.100 V 23.100 C 150.500 23.045 150.455 23.000 150.400 23.000 H 147.500 C 147.400 23.000 147.500 23.100 147.500 23.000 V 13.100 C 147.500 13.045 147.455 13.000 147.400 13.000 H 137.500 C 137.400 13.000 137.500 13.100 137.500 13.000 V 10.100 C 137.500 10.045 137.455 10.000 137.400 10.000 H 131.400 C 131.345 10.000 131.300 10.045 131.300 10.100 V 13.000 C 131.300 13.100 131.400 13.000 131.300 13.000 H 125.500 C 125.400 13.000 125.500 13.100 125.500 13.000 V 10.100 C 125.500 10.045 125.455 10.000 125.400 10.000 H 119.400 C 119.345 10.000 119.300 10.045 119.300 10.100 V 13.000 C 119.300 13.100 119.400 13.000 119.300 13.000 H 113.500 C 113.400 13.000 113.500 13.100 113.500 13.000 V 10.100 C 113.500 10.045 113.455 10.000 113.400 10.000 H 107.400 C 107.345 10.000 107.300 10.045 107.300 10.100 V 13.000 C 107.300 13.100 107.400 13.000 107.300 13.000 H 101.500 C 101.400 13.000 101.500 13.100 101.500 13.000 V 10.100 C 101.500 10.045 101.455 10.000 101.400 10.000 H 95.400 C 95.345 10.000 95.300 10.045 95.300 10.100 V 13.000 C 95.300 13.100 95.400 13.000 95.300 13.000 H 89.500 C 89.400 13.000 89.500 13.100 89.500 13.000 V 10.100 C 89.500 10.045 89.455 10.000 89.400 10.000 H 83.400 C 83.345 10.000 83.300 10.045 83.300 10.100 V 13.000 C 83.300 13.100 83.400 13.000 83.300 13.000 H 77.500 C 77.400 13.000 77.500 13.100 77.500 13.000 V 10.100 C 77.500 10.045 77.455 10.000 77.400 10.000 H 71.400 C 71.345 10.000 71.300 10.045 71.300 10.100 V 13.000 C 71.300 13.100 71.400 13.000 71.300 13.000 H 65.500 C 65.400 13.000 65.500 13.100 65.500 13.000 V 10.100 C 65.500 10.045 65.455 10.000 65.400 10.000 H 59.400 C 59.345 10.000 59.300 10.045 59.300 10.100 V 13.000 C 59.300 13.100 59.400 13.000 59.300 13.000 H 53.500 C 53.400 13.000 53.500 13.100 53.500 13.000 V 10.100 C 53.500 10.045 53.455 10.000 53.400 10.000 H 47.400 C 47.345 10.000 47.300 10.045 47.300 10.100 V 13.000 C 47.300 13.100 47.400 13.000 47.300 13.000 H 41.500 C 41.400 13.000 41.500 13.100 41.500 13.000 V 10.100 C 41.500 10.045 41.455 10.000 41.400 10.000 H 35.400 C 35.345 10.000 35.300 10.045 35.300 10.100 V 13.000 C 35.300 13.100 35.400 13.000 35.300 13.000 H 29.500 C 29.400 13.000 29.500 13.100 29.500 13.000 V 10.100 C 29.500 10.045 29.455 10.000 29.400 10.000 H 23.400 C 23.345 10.000 23.300 10.045 23.300 10.100 V 13.000 C 23.300 13.100 23.400 13.000 23.300 13.000 H 13.400 C 13.345 13.000 13.300 13.045 13.300 13.100 V 23.000 C 13.300 23.100 13.400 23.000 13.300 23.000 H 10.400 C 10.345 23.000 10.300 23.045 10.300 23.100 V 29.100 C 10.300 29.155 10.345 29.200 10.400 29.200 H 13.300 C 13.400 29.200 13.300 29.100 13.300 29.200 V 35.000 C 13.300 35.100 13.400 35.000 13.300 35.000 H 10.400 C 10.345 35.000 10.300 35.045 10.300 35.100 V 41.100 C 10.300 41.155 10.345 41.200 10.400 41.200 H 13.300 C 13.400 41.200 13.300 41.100 13.300 41.200 V 47.000 C 13.300 47.100 13.400 47.000 13.300 47.000 H 10.400 C 10.345 47.000 10.300 47.045 10.300 47.100 V 53.100 C 10.300 53.155 10.345 53.200 10.400 53.200 H 13.300 C 13.400 53.200 13.300 53.100 13.300 53.200 V 59.000 C 13.300 59.100 13.400 59.000 13.300 59.000 H 10.400 C 10.345 59.000 10.300 59.045 10.300 59.100 V 65.100 C 10.300 65.155 10.345 65.200 10.400 65.200 H 13.300 C 13.400 65.200 13.300 65.100 13.300 65.200 V 71.000 C 13.300 71.100 13.400 71.000 13.300 71.000 H 10.400 C 10.345 71.000 10.300 71.045 10.300 71.100 V 77.100 C 10.300 77.155 10.345 77.200 10.400 77.200 H 13.300 C 13.400 77.200 13.300 77.100 13.300 77.200 V 83.000 C 13.300 83.100 13.400 83.000 13.300 83.000 H 10.400 C 10.345 83.000 10.300 83.045 10.300 83.100 V 89.100 C 10.300 89.155 10.345 89.200 10.400 89.200 H 13.300 C 13.400 89.200 13.300 89.100 13.300 89.200 V 95.000 C 13.300 95.100 13.400 95.000 13.300 95.000 H 10.400 C 10.345 95.000 10.300 95.045 10.300 95.100 V 101.100 C 10.300 101.155 10.345 101.200 10.400 101.200 H 13.300 C 13.400 101.200 13.300 101.100 13.300 101.200 V 107.000 C 13.300 107.100 13.400 107.000 13.300 107.000 H 10.400 C 10.345 107.000 10.300 107.045 10.300 107.100 V 113.100 C 10.300 113.155 10.345 113.200 10.400 113.200 H 13.300 C 13.400 113.200 13.300 113.100 13.300 113.200 V 119.000 C 13.300 119.100 13.400 119.000 13.300 119.000 H 10.400 C 10.345 119.000 10.300 119.045 10.300 119.100 V 125.100 C 10.300 125.155 10.345 125.200 10.400 125.200 H 13.300 C 13.400 125.200 13.300 125.100 13.300 125.200 V 131.000 C 13.300 131.100 13.400 131.000 13.300 131.000 H 10.400 C 10.345 131.000 10.300 131.045 10.300 131.100 V 137.100 C 10.300 137.155 10.345 137.200 10.400 137.200 H 13.300 C 13.400 137.200 13.300 137.100 13.300 137.200 V 147.100 C 13.300 147.155 13.345 147.200 13.400 147.200" stroke="rgb(0,0,0)" stroke-width="0.20" />
</g>
<g id="p-6" style="fill:none;stroke-linecap:round;stroke-linejoin:round;">
  <text transform="matrix( 1.000 0.000 0.000 1.000 222.100 78.200 )" style="font-family: sans-serif ; font-weight: normal; font-style: normal; fill: rgb(255,0,0)" font-size="4px" text-anchor="middle" dominant-baseline="hanging">Bottom</text><path d="M 155.100 147.200 H 165.000 C 165.100 147.200 165.000 147.100 165.000 147.200 V 150.100 C 165.000 150.155 165.045 150.200 165.100 150.200 H 171.100 C 171.155 150.200 171.200 150.155 171.200 150.100 V 147.200 C 171.200 147.100 171.100 147.200 171.200 147.200 H 177.000 C 177.100 147.200 177.000 147.100 177.000 147.200 V 150.100 C 177.000 150.155 177.045 150.200 177.100 150.200 H 183.100 C 183.155 150.200 183.200 150.155 183.200 150.100 V 147.200 C 183.200 147.100 183.100 147.200 183.200 147.200 H 189.000 C 189.100 147.200 189.000 147.100 189.000 147.200 V 150.100 C 189.000 150.155 189.045 150.200 189.100 150.200 H 195.100 C 195.155 150.200 195.200 150.155 195.200 150.100 V 147.200 C 195.200 147.100 195.100 147.200 195.200 147.200 H 201.000 C 201.100 147.200 201.000 147.100 201.000 147.200 V 150.100 C 201.000 150.155 201.045 150.200 201.100 150.200 H 207.100 C 207.155 150.200 207.200 150.155 207.200 150.100 V 147.200 C 207.200 147.100 207.100 147.200 207.200 147.200 H 213.000 C 213.100 147.200 213.000 147.100 213.000 147.200 V 150.100 C 213.000 150.155 213.045 150.200 213.100 150.200 H 219.100 C 219.155 150.200 219.200 150.155 219.200 150.100 V 147.200 C 219.200 147.100 219.100 147.200 219.200 147.200 H 225.000 C 225.100 147.200 225.000 147.100 225.000 147.200 V 150.100 C 225.000 150.155 225.045 150.200 225.100 150.200 H 231.100 C 231.155 150.200 231.200 150.155 231.200 150.100 V 147.200 C 231.200 147.100 231.100 147.200 231.200 147.200 H 237.000 C 237.100 147.200 237.000 147.100 237.000 147.200 V 150.100 C 237.000 150.155 237.045 150.200 237.100 150.200 H 243.100 C 243.155 150.200 243.200 150.155 243.200 150.100 V 147.200 C 243.200 147.100 243.100 147.200 243.200 147.200 H 249.000 C 249.100 147.200 249.000 147.100 249.000 147.200 V 150.100 C 249.000 150.155 249.045 150.200 249.100 150.200 H 255.100 C 255.155 150.200 255.200 150.155 255.200 150.100 V 147.200 C 255.200 147.100 255.100 147.200 255.200 147.200 H 261.000 C 261.100 147.200 261.000 147.100 261.000 147.200 V 150.100 C 261.000 150.155 261.045 150.200 261.100 150.200 H 267.100 C 267.155 150.200 267.200 150.155 267.200 150.100 V 147.200 C 267.200 147.100 267.100 147.200 267.200 147.200 H 273.000 C 273.100 147.200 273.000 147.100 273.000 147.200 V 150.100 C 273.000 150.155 273.045 150.200 273.100 150.200 H 279.100 C 279.155 150.200 279.200 150.155 279.200 150.100 V 147.200 C 279.200 147.100 279.100 147.200 279.200 147.200 H 289.100 C 289.155 147.200 289.200 147.155 289.200 147.100 V 137.200 C 289.200 137.100 289.100 137.200 289.200 137.200 H 292.100 C 292.155 137.200 292.200 137.155 292.200 137.100 V 131.100 C 292.200 131.045 292.155 131.000 292.100 131.000 H 289.200 C 289.100 131.000 289.200 131.100 289.200 131.000 V 125.200 C 289.200 125.100 289.100 125.200 289.200 125.200 H 292.100 C 292.155 125.200 292.200 125.155 292.200 125.100 V 119.100 C 292.200 119.045 292.155 119.000 292.100 119.000 H 289.200 C 289.100 119.000 289.200 119.100 289.200 119.000 V 113.200 C 289.200 113.100 289.100 113.200 289.200 113.200 H 292.100 C 292.155 113.200 292.200 113.155 292.200 113.100 V 107.100 C 292.200 107.045 292.155 107.000 292.100 107.000 H 289.200 C 289.100 107.000 289.200 107.100 289.200 107.000 V 101.200 C 289.200 101.100 289.100 101.200 289.200 101.200 H 292.100 C 292.155 101.200 292.200 101.155 292.200 101.100 V 95.100 C 292.200 95.045 292.155 95.000 292.100 95.000 H 289.200 C 289.100 95.000 289.200 95.100 289.200 95.000 V 89.200 C 289.200 89.100 289.100 89.200 289.200 89.200 H 292.100 C 292.155 89.200 292.200 89.155 292.200 89.100 V 83.100 C 292.200 83.045 292.155 83.000 292.100 83.000 H 289.200 C 289.100 83.000 289.200 83.100 289.200 83.000 V 77.200 C 289.200 77.100 289.100 77.200 289.200 77.200 H 292.100 C 292.155 77.200 292.200 77.155 292.200 77.100 V 71.100 C 292.200 71.045 292.155 71.000 292.100 71.000 H 289.200 C 289.100 71.000 289.200 71.100 289.200 71.000 V 65.200 C 289.200 65.100 289.100 65.200 289.200 65.200 H 292.100 C 292.155 65.200 292.200 65.155 292.200 65.100 V 59.100 C 292.200 59.045 292.155 59.000 292.100 59.000 H 289.200 C 289.100 59.000 289.200 59.100 289.200 59.000 V 53.200 C 289.200 53.100 289.100 53.200 289.200 53.200 H 292.100 C 292.155 53.200 292.200 53.155 292.200 53.100 V 47.100 C 292.200 47.045 292.155 47.000 292.100 47.000 H 289.200 C 289.100 47.000 289.200 47.100 289.200 47.000 V 41.200 C 289.200 41.100 289.100 41.200 289.200 41.200 H 292.100 C 292.155 41.200 292.200 41.155 292.200 41.100 V 35.100 C 292.200 35.045 292.155 35.000 292.100 35.000 H 289.200 C 289.100 35.000 289.200 35.100 289.200 35.000 V 29.200 C 289.200 29.100 289.100 29.200 289.200 29.200 H 292.100 C 292.155 29.200 292.200 29.155 292.200 29.100 V 23.100 C 292.200 23.045 292.155 23.000 292.100 23.000 H 289.200 C 289.100 23.000 289.200 23.100 289.200 23.000 V 13.100 C 289.200 13.045 289.155 13.000 289.100 13.000 H 279.200 C 279.100 13.000 279.200 13.100 279.200 13.000 V 10.100 C 279.200 10.045 279.155 10.000 279.100 10.000 H 273.100 C 273.045 10.000 273.000 10.045 273.000 10.100 V 13.000 C 273.000 13.100 273.100 13.000 273.000 13.000 H 267.200 C 267.100 13.000 267.200 13.100 267.200 13.000 V 10.100 C 267.200 10.045 267.155 10.000 267.100 10.000 H 261.100 C 261.045 10.000 261.000 10.045 261.000 10.100 V 13.000 C 261.000 13.100 261.100 13.000 261.000 13.000 H 255.200 C 255.100 13.000 255.200 13.100 255.200 13.000 V 10.100 C 255.200 10.045 255.155 10.000 255.100 10.000 H 249.100 C 249.045 10.000 249.000 10.045 249.000 10.100 V 13.000 C 249.000 13.100 249.100 13.000 249.000 13.000 H 243.200 C 243.100 13.000 243.200 13.100 243.200 13.000 V 10.100 C 243.200 10.045 243.155 10.000 243.100 10.000 H 237.100 C 237.045 10.000 237.000 10.045 237.000 10.100 V 13.000 C 237.000 13.100 237.100 13.000 237.000 13.000 H 231.200 C 231.100 13.000 231.200 13.100 231.200 13.000 V 10.100 C 231.200 10.045 231.155 10.000 231.100 10.000 H 225.100 C 225.045 10.000 225.000 10.045 225.000 10.100 V 13.000 C 225.000 13.100 225.100 13.000 225.000 13.000 H 219.200 C 219.100 13.000 219.200 13.100 219.200 13.000 V 10.100 C 219.200 10.045 219.155 10.000 219.100 10.000 H 213.100 C 213.045 10.000 213.000 10.045 213.000 10.100 V 13.000 C 213.000 13.100 213.100 13.000 213.000 13.000 H 207.200 C 207.100 13.000 207.200 13.100 207.200 13.000 V 10.100 C 207.200 10.045 207.155 10.000 207.100 10.000 H 201.100 C 201.045 10.000 201.000 10.045 201.000 10.100 V 13.000 C 201.000 13.100 201.100 13.000 201.000 13.000 H 195.200 C 195.100 13.000 195.200 13.100 195.200 13.000 V 10.100 C 195.200 10.045 195.155 10.000 195.100 10.000 H 189.100 C 189.045 10.000 189.000 10.045 189.000 10.100 V 13.000 C 189.000 13.100 189.100 13.000 189.000 13.000 H 183.200 C 183.100 13.000 183.200 13.100 183.200 13.000 V 10.100 C 183.200 10.045 183.155 10.000 183.100 10.000 H 177.100 C 177.045 10.000 177.000 10.045 177.000 10.100 V 13.000 C 177.000 13.100 177.100 13.000 177.000 13.000 H 171.200 C 171.100 13.000 171.200 13.100 171.200 13.000 V 10.100 C 171.200 10.045 171.155 10.000 171.100 10.000 H 165.100 C 165.045 10.000 165.000 10.045 165.000 10.100 V 13.000 C 165.000 13.100 165.100 13.000 165.000 13.000 H 155.100 C 155.045 13.000 155.000 13.045 155.000 13.100 V 23.000 C 155.000 23.100 155.100 23.000 155.000 23.000 H 152.100 C 152.045 23.000 152.000 23.045 152.000 23.100 V 29.100 C 152.000 29.155 152.045 29.200 152.100 29.200 H 155.000 C 155.100 29.200 155.000 29.100 155.000 29.200 V 35.000 C 155.000 35.100 155.100 35.000 155.000 35.000 H 152.100 C 152.045 35.000 152.000 35.045 152.000 35.100 V 41.100 C 152.000 41.155 152.045 41.200 152.100 41.200 H 155.000 C 155.100 41.200 155.000 41.100 155.000 41.200 V 47.000 C 155.000 47.100 155.100 47.000 155.000 47.000 H 152.100 C 152.045 47.000 152.000 47.045 152.000 47.100 V 53.100 C 152.000 53.155 152.045 53.200 152.100 53.200 H 155.000 C 155.100 53.200 155.000 53.100 155.000 53.200 V 59.000 C 155.000 59.100 155.100 59.000 155.000 59.000 H 152.100 C 152.045 59.000 152.000 59.045 152.000 59.100 V 65.100 C 152.000 65.155 152.045 65.200 152.100 65.200 H 155.000 C 155.100 65.200 155.000 65.100 155.000 65.200 V 71.000 C 155.000 71.100 155.100 71.000 155.000 71.000 H 152.100 C 152.045 71.000 152.000 71.045 152.000 71.100 V 77.100 C 152.000 77.155 152.045 77.200 152.100 77.200 H 155.000 C 155.100 77.200 155.000 77.100 155.000 77.200 V 83.000 C 155.000 83.100 155.100 83.000 155.000 83.000 H 152.100 C 152.045 83.000 152.000 83.045 152.000 83.100 V 89.100 C 152.000 89.155 152.045 89.200 152.100 89.200 H 155.000 C 155.100 89.200 155.000 89.100 155.000 89.200 V 95.000 C 155.000 95.100 155.100 95.000 155.000 95.000 H 152.100 C 152.045 95.000 152.000 95.045 152.000 95.100 V 101.100 C 152.000 101.155 152.045 101.200 152.100 101.200 H 155.000 C 155.100 101.200 155.000 101.100 155.000 101.200 V 107.000 C 155.000 107.100 155.100 107.000 155.000 107.000 H 152.100 C 152.045 107.000 152.000 107.045 152.000 107.100 V 113.100 C 152.000 113.155 152.045 113.200 152.100 113.200 H 155.000 C 155.100 113.200 155.000 113.100 155.000 113.200 V 119.000 C 155.000 119.100 155.100 119.000 155.000 119.000 H 152.100 C 152.045 119.000 152.000 119.045 152.000 119.100 V 125.100 C 152.000 125.155 152.045 125.200 152.100 125.200 H 155.000 C 155.100 125.200 155.000 125.100 155.000 125.200 V 131.000 C 155.000 131.100 155.100 131.000 155.000 131.000 H 152.100 C 152.045 131.000 152.000 131.045 152.000 131.100 V 137.100 C 152.000 137.155 152.045 137.200 152.100 137.200 H 155.000 C 155.100 137.200 155.000 137.100 155.000 137.200 V 147.100 C 155.000 147.155 155.045 147.200 155.100 147.200" stroke="rgb(0,0,0)" stroke-width="0.20" />
</g>
</svg>